<?xml version="1.0" standalone="no"?>
<!DOCTYPE svg PUBLIC "-//W3C//DTD SVG 20010904//EN"
 "http://www.w3.org/TR/2001/REC-SVG-20010904/DTD/svg10.dtd">
<svg version="1.0" xmlns="http://www.w3.org/2000/svg"
 width="800.000000pt" height="651.000000pt" viewBox="0 0 800.000000 651.000000"
 preserveAspectRatio="xMidYMid meet">

<g transform="translate(0.000000,651.000000) scale(0.100000,-0.100000)"
fill="#000000" stroke="none">
<path d="M0 6243 c1 -244 2 -265 15 -234 8 18 15 38 15 45 0 6 16 24 35 39 19
15 35 35 35 44 0 9 10 26 22 39 76 77 108 114 129 149 13 22 28 45 34 50 6 6
20 23 31 39 10 16 29 44 42 62 l22 34 -190 0 -190 0 0 -267z"/>
<path d="M2429 6488 c26 -13 51 -34 60 -52 9 -17 38 -53 66 -79 42 -41 54 -48
78 -43 33 7 55 -14 118 -105 41 -62 66 -89 78 -89 5 0 14 27 20 60 10 50 9 64
-4 89 -8 17 -15 43 -15 58 0 34 -14 58 -28 49 -11 -7 -22 15 -22 44 0 10 -17
35 -37 54 l-38 36 -160 -1 -160 0 44 -21z"/>
<path d="M3363 6483 c23 -24 29 -26 37 -13 19 29 11 40 -27 40 l-38 0 28 -27z"/>
<path d="M3697 6498 c-2 -7 3 -23 11 -36 13 -20 13 -26 -3 -56 -26 -49 -17
-171 17 -223 27 -41 27 -37 -20 -155 -10 -25 -8 -32 18 -61 l29 -34 -15 -57
c-14 -55 -14 -59 5 -92 12 -19 21 -48 21 -65 0 -19 12 -42 35 -68 35 -38 35
-39 29 -112 -7 -90 5 -130 38 -126 20 2 23 -2 24 -39 0 -23 10 -56 22 -76 12
-19 22 -43 22 -52 0 -9 9 -26 20 -38 20 -22 28 -64 10 -53 -5 3 -7 12 -3 20 3
9 -1 15 -11 15 -9 0 -16 7 -16 15 0 17 -9 19 -27 7 -9 -6 -8 -14 5 -33 36 -52
55 -69 68 -58 9 7 19 7 33 -1 24 -12 26 -28 7 -52 -11 -16 -15 -16 -34 -2 -13
8 -20 19 -17 24 3 5 -7 3 -22 -5 -15 -8 -28 -18 -28 -22 -1 -5 -5 -18 -9 -31
-6 -19 0 -33 31 -70 48 -58 71 -138 55 -195 -6 -22 -7 -39 -1 -43 13 -8 37
-57 43 -87 2 -14 10 -36 17 -49 8 -13 16 -76 19 -144 5 -104 9 -125 28 -149
27 -34 28 -65 2 -98 -24 -30 -25 -50 -5 -67 10 -8 12 -18 6 -29 -5 -9 -12 -36
-16 -61 -4 -25 -11 -53 -16 -62 -12 -22 18 -84 58 -125 16 -15 28 -30 28 -33
1 -3 4 -18 8 -34 l8 -28 19 23 c11 12 20 28 20 36 0 7 6 13 13 13 39 -1 55
-47 27 -80 -15 -17 -17 -27 -9 -41 5 -11 14 -20 19 -20 6 -1 15 -3 20 -4 6 -1
15 -3 20 -4 6 0 19 -10 31 -22 19 -19 19 -22 4 -45 -14 -22 -18 -38 -24 -90
-2 -19 -46 -9 -50 12 -5 28 -22 47 -33 36 -5 -5 -11 -46 -12 -92 -3 -75 -2
-80 11 -56 15 28 40 35 49 12 3 -8 -1 -27 -9 -42 -13 -25 -13 -32 4 -69 10
-22 20 -52 24 -68 3 -15 15 -37 26 -48 18 -18 20 -28 14 -65 -6 -40 -3 -47 24
-74 16 -17 31 -40 33 -53 2 -15 10 -22 28 -24 47 -2 50 -3 50 -11 0 -14 -65
-83 -94 -97 -48 -25 -58 -20 -50 23 14 68 11 87 -13 90 -16 2 -23 -2 -23 -14
0 -28 -84 -102 -125 -110 -19 -3 -35 -9 -35 -13 0 -4 -19 -23 -42 -42 -35 -27
-52 -34 -88 -34 -45 0 -45 0 -48 -37 -3 -39 -22 -58 -58 -56 -10 0 -44 -6 -74
-14 -41 -12 -56 -20 -58 -35 -2 -15 5 -23 28 -31 36 -13 45 -32 33 -69 -8 -24
-16 -28 -52 -30 -46 -3 -87 -21 -113 -50 -16 -17 -16 -21 -2 -41 8 -12 21 -22
28 -22 8 0 19 -7 26 -15 8 -9 30 -15 60 -15 26 0 67 -7 90 -15 23 -8 55 -15
70 -15 41 0 238 -199 296 -298 16 -28 17 -34 4 -42 -7 -5 -27 -7 -43 -5 -63 8
-74 -15 -22 -46 34 -20 34 -22 20 -49 -15 -29 -33 -40 -67 -40 -19 0 -19 -2
-5 -23 15 -23 59 -26 84 -5 7 6 20 8 28 4 22 -8 18 -36 -5 -36 -11 0 -23 -8
-27 -17 -28 -84 -61 -136 -106 -166 -12 -8 -16 -19 -11 -30 8 -22 26 -22 66 3
49 29 64 26 39 -9 -12 -16 -21 -40 -21 -53 0 -12 -9 -34 -20 -48 -11 -14 -20
-31 -20 -37 0 -16 -3 -16 -35 -1 -18 8 -24 16 -19 27 22 54 11 77 -30 61 -16
-6 -20 -14 -18 -39 2 -19 -1 -31 -8 -31 -9 0 -7 -7 3 -24 18 -27 6 -52 -28
-58 -14 -2 -19 -10 -17 -25 2 -12 -2 -24 -8 -28 -12 -8 -14 -45 -1 -45 5 0 11
9 14 20 9 34 37 25 37 -12 0 -40 -9 -55 -35 -60 -15 -2 -21 3 -23 22 -6 40
-21 48 -43 21 -21 -26 -25 -61 -7 -79 9 -9 8 -21 -1 -52 -12 -41 -49 -70 -88
-70 -10 0 -26 -9 -36 -20 -10 -12 -22 -18 -27 -15 -6 3 -10 2 -10 -4 0 -5 -8
-12 -17 -14 -12 -3 -8 -5 9 -6 37 -1 42 -14 13 -41 -14 -13 -23 -33 -23 -49 1
-37 -35 -115 -66 -142 -14 -12 -26 -31 -26 -40 0 -20 -16 -32 -43 -34 -10 -1
-24 -8 -32 -16 -22 -22 16 -68 86 -103 62 -31 98 -30 141 3 13 9 44 25 70 35
26 10 50 22 53 27 3 4 27 18 52 29 25 11 65 38 89 60 24 22 53 40 64 40 12 0
33 9 48 20 23 17 36 19 96 13 57 -5 66 -8 52 -18 -26 -20 -20 -51 14 -65 42
-17 69 -70 36 -70 -8 0 -17 -7 -20 -16 -5 -14 -1 -15 30 -9 25 4 39 2 44 -6 6
-8 21 -9 56 -3 42 8 49 12 46 31 -4 31 13 37 64 23 51 -15 61 -44 19 -60 -23
-9 -49 -49 -48 -75 1 -37 17 -75 32 -75 20 0 41 -19 41 -37 0 -7 -7 -13 -17
-13 -9 0 -13 -3 -10 -7 4 -3 -1 -12 -11 -20 -16 -12 -15 -14 7 -33 17 -15 19
-20 7 -20 -35 0 -47 -100 -12 -113 13 -5 26 36 42 125 3 21 10 35 15 32 5 -3
6 -10 3 -16 -4 -6 -1 -9 5 -7 7 3 13 9 13 14 1 6 14 16 30 24 40 19 77 1 70
-35 -3 -17 0 -24 12 -24 9 0 16 -4 16 -9 0 -5 8 -17 17 -27 10 -9 18 -22 19
-29 4 -29 16 -55 25 -55 16 0 10 -25 -11 -43 -21 -18 -25 -43 -11 -66 6 -9 5
-21 -2 -32 -9 -15 -6 -24 18 -49 l29 -30 1563 0 1563 0 -2 573 -3 572 -23 10
c-12 5 -24 17 -27 25 -3 8 -22 24 -42 35 -45 24 -57 55 -21 55 23 0 75 -46 70
-62 -1 -5 5 -8 13 -8 7 0 19 -8 24 -17 7 -13 10 88 11 329 0 221 -4 349 -10
353 -13 8 -13 52 0 60 5 3 10 27 10 52 0 38 -2 43 -14 34 -8 -7 -12 -21 -8
-34 3 -12 1 -19 -3 -15 -18 17 -15 79 4 107 18 25 20 43 19 205 -1 169 -1 176
-18 161 -17 -15 -20 -15 -37 2 -21 21 -73 56 -73 49 0 -3 -15 0 -32 5 -36 10
-68 4 -68 -14 0 -6 9 -20 20 -32 l21 -22 -43 1 c-41 1 -43 3 -43 31 -1 25 -8
34 -43 52 -23 12 -61 24 -85 26 -48 4 -101 -19 -92 -42 4 -11 3 -12 -10 -1 -8
7 -12 16 -10 21 3 4 -5 8 -17 7 -13 0 -36 0 -52 1 -24 1 -26 3 -16 16 6 8 9
18 6 24 -3 5 -1 11 5 13 15 5 -19 42 -57 61 -20 10 -33 26 -37 43 -4 23 -2 25
19 21 13 -2 24 0 24 5 0 6 7 7 16 4 8 -3 24 -1 34 4 16 9 18 7 14 -16 -3 -14
0 -32 7 -40 8 -10 7 -12 -8 -9 -11 2 -26 -1 -34 -6 -10 -6 -11 -9 -1 -10 37
-4 61 -4 99 2 23 3 40 2 37 -3 -7 -11 41 -28 81 -28 19 0 37 4 40 10 3 5 15
15 27 21 13 7 18 7 14 1 -3 -6 8 -21 26 -34 28 -19 46 -23 108 -23 43 0 85 -6
98 -13 12 -7 30 -12 40 -10 9 1 23 -1 30 -5 9 -6 12 3 12 34 0 34 -3 40 -12
31 -15 -15 -58 -16 -58 -2 0 6 -7 10 -15 10 -13 0 -14 4 -5 20 8 15 6 24 -9
39 -20 20 -19 20 10 26 16 4 29 12 29 20 0 16 35 26 48 13 6 -6 9 1 9 20 -1
24 -5 28 -17 22 -8 -4 -21 -5 -27 -3 -8 3 -13 -4 -13 -16 0 -25 -41 -29 -60
-6 -11 14 -7 19 12 16 4 0 19 6 35 14 15 8 23 15 16 15 -7 0 -10 6 -7 14 7 19
-30 30 -56 16 -11 -6 -20 -15 -20 -21 0 -6 -4 -8 -9 -5 -4 3 -16 -3 -26 -14
-20 -22 -13 -56 14 -63 20 -5 25 -37 5 -37 -7 0 -22 -12 -33 -27 -12 -16 -18
-21 -15 -11 3 10 -1 18 -13 21 -14 4 -14 5 5 6 29 1 28 17 -1 25 -22 5 -23 9
-20 77 5 90 2 100 -34 90 -21 -6 -28 -14 -29 -34 -1 -14 2 -26 5 -25 23 2 31
-5 31 -28 0 -20 -4 -25 -16 -20 -12 4 -15 2 -10 -9 3 -9 0 -15 -8 -15 -9 0
-12 -7 -9 -19 4 -15 -1 -18 -21 -18 -15 0 -26 5 -26 12 0 8 -16 19 -36 25 -28
9 -34 16 -32 33 2 12 9 21 16 20 6 -2 11 0 11 5 -3 20 2 25 12 12 9 -13 10
-13 6 0 -5 22 -58 25 -73 5 -7 -10 -18 -14 -25 -9 -8 4 -10 3 -5 -4 10 -17
-15 -15 -51 3 -16 8 -40 16 -54 19 -13 2 -23 9 -21 15 1 8 -3 9 -15 3 -24 -13
-63 3 -63 25 0 15 2 16 10 3 5 -8 10 -11 10 -6 0 5 8 2 17 -5 9 -8 14 -9 11
-3 -4 6 7 11 28 12 75 5 77 5 60 18 -19 13 -21 44 -3 44 8 0 7 4 -3 11 -12 9
-11 10 5 6 17 -3 21 1 23 22 3 55 5 62 19 57 8 -3 11 -1 8 4 -14 22 67 1 92
-24 32 -32 41 -32 53 -1 5 14 12 25 15 25 4 0 3 -4 0 -10 -3 -5 -2 -10 3 -10
5 0 17 -18 27 -40 23 -52 40 -61 76 -43 16 8 29 17 29 19 0 3 -4 3 -8 0 -4 -2
-8 5 -8 17 0 12 -4 32 -8 43 -5 16 -2 23 10 28 26 10 37 -8 28 -46 -4 -18 -6
-37 -4 -43 3 -9 5 -22 9 -68 1 -5 6 -5 11 -2 6 3 10 38 10 77 0 58 3 74 20 88
19 16 19 18 3 24 -14 6 -15 9 -4 15 9 6 6 10 -13 15 -23 6 -25 9 -13 26 8 15
20 19 39 16 15 -2 27 -1 27 2 -1 4 -1 9 1 12 11 29 7 51 -9 60 -11 5 -23 19
-26 30 -3 11 -12 20 -19 20 -6 0 -18 6 -24 13 -14 13 -102 18 -102 5 0 -15 33
-38 56 -38 28 0 44 -28 23 -41 -11 -6 -11 -11 -1 -21 15 -15 16 -42 0 -32 -7
4 -8 3 -4 -4 4 -7 15 -12 24 -12 10 0 2 -10 -21 -25 -20 -14 -39 -24 -41 -23
-3 2 -11 -4 -18 -13 -14 -18 -68 -32 -68 -17 0 4 -12 5 -27 2 -16 -4 -25 -3
-21 1 9 10 -32 41 -47 37 -5 -2 -4 2 3 9 15 16 16 29 1 29 -5 0 -7 -4 -4 -10
3 -5 -4 -10 -15 -10 -16 0 -20 -4 -16 -16 3 -8 2 -13 -2 -10 -10 6 -39 -16
-38 -29 1 -5 -17 -14 -39 -20 -34 -8 -39 -14 -37 -32 2 -16 -2 -23 -12 -23 -9
0 -16 6 -16 14 0 8 -5 18 -12 22 -7 5 -8 3 -3 -6 5 -9 4 -11 -4 -6 -9 6 -9 11
1 24 8 10 9 13 1 9 -7 -4 -14 1 -18 12 -4 13 -12 17 -26 14 -21 -6 -52 24 -42
41 4 5 1 6 -5 2 -7 -4 -12 -26 -12 -49 0 -59 -10 -89 -26 -83 -8 3 -13 0 -11
-7 1 -8 -11 -12 -35 -11 -20 0 -35 -2 -33 -6 2 -4 20 -6 39 -5 32 1 34 0 24
-19 -6 -12 -11 -23 -10 -26 1 -3 -7 -6 -18 -6 -11 -1 -20 5 -20 12 0 8 -6 11
-15 7 -9 -3 -15 -2 -14 3 4 23 -2 35 -13 28 -10 -6 -10 -5 -1 7 9 11 9 19 2
26 -16 16 -1 91 22 106 10 8 16 16 14 19 -3 3 5 3 19 1 15 -3 35 3 55 18 27
20 31 28 26 56 -3 19 -1 33 5 33 6 0 10 9 10 19 0 12 9 21 25 25 14 4 23 11
20 16 -3 6 -5 10 -3 10 2 0 17 4 34 9 26 7 30 6 32 -12 0 -12 -5 -28 -12 -37
-26 -30 -24 -35 14 -34 20 1 42 4 47 7 5 3 10 0 10 -8 0 -8 -13 -17 -29 -20
-15 -4 -30 -10 -33 -15 -3 -5 -12 -7 -20 -4 -8 4 -12 11 -8 17 4 6 1 7 -6 3
-20 -13 12 -50 51 -59 45 -11 111 6 138 35 19 20 19 21 16 1 -2 -11 1 -20 7
-21 7 -1 25 -3 41 -6 19 -3 41 3 66 19 21 13 42 21 46 17 5 -4 2 2 -6 13 -8
11 -18 22 -22 25 -13 10 -23 74 -10 66 7 -4 8 3 3 21 -6 20 -3 31 8 41 14 11
14 11 -2 6 -12 -4 -17 -2 -15 7 2 7 -6 14 -17 15 -11 1 -29 5 -39 10 -17 6
-18 4 -12 -22 14 -57 18 -95 10 -93 -5 1 -17 -1 -26 -5 -9 -4 -27 -6 -40 -4
-19 2 -22 8 -19 33 11 73 7 88 -22 96 -16 4 -35 13 -44 20 -17 14 -43 21 -42
11 4 -26 -5 -32 -47 -32 -36 0 -45 3 -41 14 4 9 -1 16 -14 18 -11 2 -19 5 -18
8 1 3 -3 15 -10 28 -11 21 -9 27 19 54 24 22 31 36 27 54 -2 14 -2 22 1 19 3
-3 14 3 25 12 11 10 17 12 13 6 -4 -8 -1 -13 8 -13 19 0 36 -28 36 -59 0 -5 7
-12 15 -15 11 -4 19 3 25 19 5 14 15 25 22 26 7 0 25 3 39 5 21 3 25 0 24 -16
-1 -11 -4 -22 -7 -25 -3 -3 -3 -20 1 -38 8 -41 7 -59 -2 -74 -5 -7 -7 -13 -5
-14 2 0 14 -3 28 -5 40 -7 119 32 102 51 -4 5 2 5 12 1 20 -7 20 -6 1 14 -10
12 -20 34 -21 49 -2 28 -1 29 29 20 18 -5 33 -9 35 -9 2 0 0 -4 -3 -10 -4 -6
6 -10 24 -10 24 0 36 9 64 48 19 26 37 59 41 75 3 15 13 27 22 27 8 0 13 4 9
10 -3 5 0 18 7 30 9 14 23 20 52 20 l39 0 -6 -37 c-4 -20 -14 -44 -23 -52 -9
-9 -14 -11 -10 -4 5 9 -3 11 -28 9 -33 -2 -64 -16 -38 -16 7 0 19 -17 28 -37
l15 -38 23 28 c17 21 24 25 34 15 10 -10 12 59 11 340 l-1 352 -43 46 c-58 61
-56 110 3 68 12 -8 26 -13 31 -10 4 3 8 37 9 75 0 62 -2 68 -18 64 -11 -3 -38
-23 -61 -44 -61 -56 -66 -53 -47 32 3 16 -3 15 -49 -3 -29 -11 -35 -10 -58 12
-28 26 -32 48 -11 56 7 3 12 16 10 30 -3 30 -4 31 -24 34 -43 6 -51 1 -48 -35
1 -19 5 -35 9 -35 13 0 3 -74 -15 -108 -9 -18 -14 -37 -10 -43 4 -7 -1 -7 -15
0 -26 14 -28 54 -3 79 9 9 17 24 17 32 0 15 -8 16 -78 6 -22 -3 -48 -1 -59 5
-16 8 -19 8 -13 -1 6 -9 2 -9 -16 0 -21 12 -26 9 -55 -26 -18 -21 -30 -42 -28
-46 3 -4 -1 -8 -9 -8 -16 0 -47 -31 -47 -48 0 -6 10 -14 22 -18 22 -7 21 -8
-12 -37 -19 -16 -29 -26 -21 -22 10 6 12 4 7 -4 -6 -9 -11 -9 -21 -1 -8 7 -19
9 -25 5 -15 -9 -35 41 -23 57 6 7 14 41 18 75 6 56 5 62 -14 68 -11 3 -26 18
-33 33 -12 23 -19 27 -53 25 -62 -3 -67 -5 -73 -25 -2 -10 -8 -18 -13 -18 -11
0 -7 23 6 32 6 5 5 8 -3 8 -10 0 -10 5 -2 20 6 11 8 20 4 20 -3 0 -1 6 5 14 9
11 5 20 -19 45 -26 25 -40 31 -78 32 -26 0 -40 3 -31 7 9 4 33 22 54 40 30 27
36 38 31 58 -4 13 -13 24 -21 24 -17 0 -33 28 -30 52 2 13 -6 19 -33 23 -50 8
-67 19 -67 41 0 15 6 19 30 17 39 -3 86 -23 79 -34 -3 -5 2 -9 10 -9 9 0 16
-3 16 -7 0 -5 9 -19 19 -33 19 -24 20 -24 40 -6 12 11 24 17 27 13 6 -6 19 2
61 41 19 18 23 29 18 50 -8 34 -18 44 -47 47 -25 3 -26 -2 -31 -91 0 -8 -10
-9 -29 -4 -33 10 -60 34 -50 45 4 5 3 6 -3 3 -11 -6 -67 23 -72 37 -1 6 16 18
38 27 22 10 38 21 35 26 -3 5 -7 21 -10 36 -4 23 -3 26 10 16 11 -10 14 -10
14 0 0 8 3 11 6 7 3 -3 17 -2 30 4 20 7 26 5 31 -9 8 -20 24 -33 35 -26 12 7
10 44 -2 44 -5 0 -10 9 -10 20 0 23 22 26 40 6 13 -16 39 -10 56 12 6 8 15 12
20 9 6 -3 16 -1 24 5 12 8 11 8 -5 3 -15 -5 -17 -3 -9 5 12 12 7 50 -6 50 -4
0 -15 -9 -25 -20 -42 -46 -71 -7 -31 41 14 17 26 41 26 55 0 20 -5 24 -30 24
-19 0 -42 11 -62 29 l-32 28 28 15 c25 13 33 13 56 2 15 -8 34 -22 44 -33 14
-15 24 -17 52 -11 37 8 57 20 35 20 -7 0 -9 5 -6 10 3 6 1 10 -4 10 -6 0 -11
10 -11 23 0 13 -6 31 -14 42 -20 27 -82 14 -117 -25 -29 -31 -44 -37 -54 -20
-4 6 -1 9 7 8 7 -2 11 4 10 12 -2 8 -4 45 -4 82 0 64 -1 67 -20 57 -15 -8 -18
-17 -13 -40 4 -16 7 -57 7 -92 1 -55 -1 -63 -22 -74 -29 -15 -34 -40 -9 -46
34 -9 22 -36 -18 -42 -21 -4 -55 -15 -76 -26 -22 -10 -43 -16 -48 -13 -5 3 -9
23 -9 45 0 31 4 39 18 39 18 0 32 20 46 64 5 13 2 17 -8 13 -8 -3 -20 1 -27 9
-9 11 -15 11 -25 3 -10 -8 -22 -8 -44 -1 -22 8 -33 8 -42 -1 -17 -16 -80 -19
-71 -3 3 6 2 7 -3 3 -5 -5 -9 -13 -9 -18 0 -10 -8 -11 -30 -3 -8 3 -13 10 -10
14 3 4 -8 12 -23 18 -35 12 -62 -1 -62 -29 0 -26 -41 -42 -76 -29 -31 12 -24
29 11 22 21 -4 25 -1 25 21 0 16 8 31 20 37 11 6 20 8 20 4 0 -3 6 -1 13 5 8
6 17 8 21 4 4 -4 4 0 1 9 -9 23 33 52 53 35 12 -10 11 -13 -9 -18 -17 -5 -19
-7 -6 -8 10 -1 28 4 40 11 21 11 21 10 7 -8 -14 -18 -14 -18 3 -5 10 8 35 16
54 18 20 1 41 7 48 13 6 5 15 7 18 3 4 -3 7 -1 7 5 0 7 8 12 18 12 31 0 32 10
6 57 -18 35 -21 49 -13 65 15 28 4 48 -26 48 -19 0 -25 -5 -25 -21 0 -11 4
-18 9 -15 5 4 8 0 6 -6 -14 -66 -19 -78 -27 -78 -5 0 -6 -4 -3 -10 3 -5 3 -10
-2 -11 -4 0 -18 -2 -29 -5 -15 -2 -23 2 -27 16 -7 28 -23 25 -48 -9 l-22 -29
-23 27 c-21 26 -27 27 -69 21 -25 -4 -51 -13 -58 -20 -10 -10 -9 -11 3 -5 12
6 13 5 3 -6 -11 -10 -8 -18 12 -39 30 -31 25 -60 -11 -60 -17 0 -31 10 -44 33
-11 17 -23 30 -26 29 -4 -2 -10 1 -13 7 -5 7 -15 6 -33 -4 -34 -17 -57 -14
-70 9 -11 19 -3 50 10 42 5 -3 21 2 37 10 16 8 36 16 44 17 9 1 22 6 29 11 7
4 32 9 55 11 39 3 42 5 42 31 0 16 -5 29 -12 29 -6 0 -15 3 -19 8 -11 11 -52
9 -76 -4 -11 -6 -42 -12 -68 -13 -48 -2 -80 -18 -80 -41 0 -7 -7 -18 -15 -25
-12 -10 -16 -8 -25 14 -5 15 -20 38 -33 52 -22 24 -25 24 -40 9 -16 -15 -87
-19 -87 -4 0 4 -8 9 -17 13 -10 3 -24 9 -31 12 -9 4 -10 0 -3 -19 21 -54 -38
-102 -82 -66 -14 10 -35 19 -46 19 -12 0 -32 7 -45 15 -20 13 -23 13 -23 0 0
-17 -45 -108 -55 -113 -5 -2 -8 -10 -8 -18 0 -10 -5 -12 -12 -8 -8 5 -8 1 2
-12 8 -10 11 -16 6 -12 -4 4 -18 -2 -29 -13 -19 -17 -22 -18 -30 -3 -5 9 -7
27 -4 40 2 13 1 24 -4 24 -4 0 -24 17 -43 38 l-36 37 -1 -50 c0 -45 -3 -76
-12 -127 -2 -10 -6 -21 -10 -24 -4 -4 -7 -15 -7 -25 0 -10 -10 -25 -22 -33
-30 -21 -37 -20 -31 4 6 22 23 27 23 8 0 -7 6 -4 12 6 8 15 7 22 -5 31 -9 7
-13 15 -9 20 4 4 -7 4 -24 1 -23 -5 -33 -3 -37 8 -5 14 -13 14 -71 7 -5 0 1
-12 14 -26 29 -31 35 -81 9 -81 -17 0 -17 1 -1 20 16 20 16 20 -3 6 -11 -8
-23 -19 -26 -24 -4 -4 -9 -3 -13 2 -4 6 -13 9 -21 6 -8 -4 -12 -10 -9 -15 3
-5 -2 -9 -10 -9 -9 0 -16 -6 -16 -14 0 -18 -42 -29 -52 -13 -14 22 -8 46 13
58 15 8 19 8 15 0 -8 -12 6 -15 18 -4 4 4 17 8 29 8 16 0 21 5 19 20 -2 11 -4
25 -4 32 -1 7 -6 11 -12 10 -5 -1 -11 6 -14 15 -2 11 8 22 27 33 17 8 31 22
31 29 0 8 7 17 16 20 11 4 15 14 11 32 -5 27 14 54 38 54 8 0 23 20 34 44 19
44 63 78 89 69 7 -3 12 -22 12 -48 0 -56 19 -74 54 -48 23 16 31 33 27 55 -1
11 66 21 94 14 18 -5 25 -2 25 9 0 10 10 15 29 15 16 0 34 7 41 15 14 17 56
20 65 5 10 -16 58 -12 52 4 -3 8 4 24 15 36 28 30 14 52 -40 63 -34 7 -42 13
-47 37 -7 34 -21 47 -56 53 -30 6 -42 0 -57 -29 -10 -19 -8 -24 13 -38 13 -9
32 -16 40 -16 23 0 12 -25 -11 -26 -43 -2 -75 -18 -90 -45 -8 -16 -13 -32 -12
-36 5 -14 -82 -20 -92 -8 -5 7 -8 14 -5 16 2 3 -5 6 -17 6 -26 2 -38 19 -38
54 0 29 -19 42 -41 28 -8 -5 -10 -9 -5 -9 5 0 3 -7 -4 -15 -7 -9 -19 -14 -25
-11 -14 5 -35 -34 -42 -79 -3 -16 -16 -40 -29 -52 -13 -12 -24 -28 -24 -36 0
-7 -15 -20 -32 -28 -21 -9 -32 -20 -30 -31 3 -21 -16 -34 -30 -20 -8 8 -7 16
3 28 10 12 14 43 14 100 0 58 4 87 14 96 12 11 13 10 8 -4 -3 -10 -2 -20 4
-23 5 -4 7 -11 4 -16 -4 -5 3 -9 14 -9 15 0 21 7 22 23 1 12 3 32 4 45 1 12
-2 22 -7 22 -5 0 -7 4 -4 8 2 4 -7 9 -20 10 -14 1 -23 -1 -21 -6 3 -4 -9 -7
-26 -6 -18 0 -36 -2 -42 -5 -21 -11 -41 -9 -75 7 -31 15 -35 22 -34 52 1 19 2
52 3 74 1 28 5 37 15 33 19 -7 36 12 36 40 0 19 -5 23 -29 23 -40 0 -47 15
-21 47 21 27 14 53 -12 37 -13 -9 -18 -10 -39 -13 -7 0 -9 -13 -7 -31 3 -16 1
-30 -2 -30 -4 0 -5 -12 -3 -27 3 -16 1 -23 -4 -17 -14 18 -68 -3 -81 -31 -10
-21 -18 -25 -45 -23 -47 3 -58 -7 -46 -39 5 -14 7 -34 4 -43 -3 -11 4 -30 19
-47 14 -17 23 -33 19 -37 -11 -11 -44 -6 -74 11 -34 20 -57 7 -43 -24 4 -10 9
-22 10 -28 8 -49 19 -77 35 -91 11 -9 19 -21 19 -26 0 -16 -41 -101 -56 -116
-8 -7 -12 -18 -9 -23 9 -14 55 -11 55 4 1 6 7 -8 15 -33 8 -25 19 -58 25 -75
9 -26 7 -32 -17 -51 -24 -19 -26 -24 -16 -47 14 -30 8 -39 -23 -31 -19 5 -22
3 -17 -15 3 -11 11 -26 19 -32 8 -6 14 -26 14 -44 0 -19 8 -39 20 -50 22 -20
21 -46 -3 -73 -9 -10 -15 -21 -12 -24 3 -3 -6 -8 -20 -12 -25 -7 -35 -39 -15
-51 6 -4 8 -11 5 -16 -4 -5 0 -9 8 -9 8 0 18 -8 21 -17 8 -19 -17 -43 -45 -43
-9 0 -19 -9 -22 -20 -3 -11 0 -20 5 -20 7 0 6 -5 -1 -13 -6 -8 -8 -17 -4 -20
3 -4 1 -7 -5 -7 -7 0 -12 5 -12 11 0 7 -9 9 -23 5 -29 -7 -65 17 -69 47 -4 27
-20 27 -33 -2 -12 -25 -21 -26 -70 -6 -30 13 -35 18 -25 30 8 9 8 15 2 15 -5
0 -13 -7 -16 -16 -3 -8 -10 -13 -14 -10 -5 3 -7 -5 -5 -17 5 -29 -20 -73 -38
-68 -8 1 -30 4 -49 6 -19 1 -43 6 -52 10 -29 12 -22 -30 7 -49 21 -14 24 -22
20 -49 -7 -37 -21 -48 -49 -38 -14 6 -29 2 -47 -12 -30 -21 -49 -16 -49 14 0
25 -17 24 -25 -2 -5 -15 -10 -18 -20 -9 -8 6 -12 19 -10 29 2 12 -4 17 -21 19
-20 1 -24 -3 -24 -27 0 -39 -19 -91 -34 -91 -17 0 -51 40 -76 90 -11 22 -24
40 -29 40 -5 0 -24 14 -41 32 l-32 32 23 9 c17 6 32 4 51 -8 56 -33 34 34 -37
110 l-47 50 21 37 c26 46 27 68 2 68 -27 0 -34 15 -16 30 21 17 19 47 -4 53
-14 3 -21 15 -23 38 -2 21 -8 33 -15 32 -7 -2 -13 6 -13 18 0 11 -9 32 -20 46
-24 31 -11 58 24 47 27 -9 36 -22 36 -60 0 -51 61 -69 110 -33 11 8 12 12 2
16 -24 9 -42 35 -42 58 0 13 -5 25 -11 27 -6 2 -11 16 -11 30 0 15 -6 29 -13
32 -14 5 -24 103 -31 301 -5 135 -6 141 -30 163 -18 16 -24 28 -18 40 13 31
15 62 5 81 -13 23 10 36 28 18 16 -16 30 7 23 37 -8 36 -31 47 -62 31 -27 -14
-29 -13 -45 13 -20 31 -83 92 -96 92 -4 0 -14 -7 -21 -16 -40 -49 -50 -56 -71
-49 -12 4 -30 7 -39 6 -10 0 -18 7 -18 15 0 10 7 13 24 8 38 -9 50 3 32 32
-21 31 -20 61 3 73 10 6 20 8 23 6 3 -3 5 1 6 8 12 87 11 98 -4 104 -17 6 -34
-7 -37 -28 -2 -8 -6 -19 -10 -26 -4 -7 -5 -24 -3 -39 l5 -27 -24 23 c-14 13
-25 20 -25 15 0 -5 -5 -4 -12 3 -9 9 -1 23 37 60 56 53 57 56 60 130 l2 52
-83 0 c-57 0 -84 -4 -87 -12z m1734 -768 c5 0 9 -7 9 -15 0 -8 -5 -15 -11 -15
-5 0 -8 -4 -4 -9 7 -13 -10 -22 -27 -16 -11 4 -15 35 -9 64 1 2 8 0 17 -3 9
-3 20 -6 25 -6z m-191 -120 c0 -5 -9 -14 -19 -19 -14 -8 -20 -7 -24 3 -3 8 -3
17 0 20 10 10 43 7 43 -4z m723 -25 c4 -8 2 -17 -3 -20 -6 -4 -10 3 -10 14 0
25 6 27 13 6z m-643 -39 c0 -3 -4 -8 -10 -11 -5 -3 -10 -1 -10 4 0 6 5 11 10
11 6 0 10 -2 10 -4z m1065 -84 c-3 -3 -11 0 -18 7 -9 10 -8 11 6 5 10 -3 15
-9 12 -12z m860 -30 c-3 -3 -11 0 -18 7 -9 10 -8 11 6 5 10 -3 15 -9 12 -12z
m-920 -9 c-2 -10 -4 -21 -4 -25 -1 -5 -5 -8 -10 -8 -4 0 -6 11 -3 25 2 14 8
25 12 25 5 0 7 -8 5 -17z m-107 -21 c2 -7 -3 -12 -12 -12 -9 0 -16 7 -16 16 0
17 22 14 28 -4z m255 3 c-3 -9 -8 -14 -10 -11 -3 3 -2 9 2 15 9 16 15 13 8 -4z
m-2353 -24 c0 -12 -28 -22 -34 -12 -3 5 -3 11 1 15 9 9 33 7 33 -3z m1680 -5
c0 -7 8 -20 17 -27 11 -10 14 -10 9 -1 -4 6 -3 12 3 12 6 0 8 7 5 15 -6 16 4
19 30 9 18 -7 11 -30 -19 -60 -14 -14 -30 -19 -53 -17 -18 2 -32 1 -31 -4 5
-31 -4 -43 -45 -55 -24 -7 -44 -16 -45 -20 -1 -11 -9 -11 -56 -3 -29 4 -36 8
-25 15 8 5 17 7 21 4 4 -2 10 0 14 5 3 6 12 8 20 5 9 -4 19 4 26 20 12 25 22
30 74 39 15 2 19 10 18 32 -2 27 10 44 30 45 4 0 7 -6 7 -14z m1029 -3 c-1 -5
0 -10 1 -13 7 -19 7 -40 -1 -40 -5 0 -9 3 -10 8 0 4 -2 17 -5 30 -2 12 1 22 6
22 6 0 9 -3 9 -7z m-1582 -59 c-3 -3 -12 -4 -19 -1 -8 3 -5 6 6 6 11 1 17 -2
13 -5z m1917 -69 c-4 -26 -9 -33 -15 -23 -10 16 -12 62 -2 71 14 15 24 -12 17
-48z m-1013 -28 c-8 -8 -11 0 -10 29 1 39 1 39 11 11 7 -21 7 -32 -1 -40z
m772 56 c-7 -2 -19 -2 -25 0 -7 3 -2 5 12 5 14 0 19 -2 13 -5z m-1416 -23 c14
-11 34 -20 44 -20 11 0 19 -6 19 -14 0 -8 12 -24 26 -35 l26 -20 -26 -26 c-35
-35 -68 -20 -84 41 -10 37 -16 44 -37 44 -29 0 -30 3 -13 30 16 24 14 24 45 0z
m570 -31 c8 -11 21 -15 35 -12 22 4 22 4 -2 -11 -14 -8 -40 -23 -59 -31 -33
-16 -35 -16 -59 9 l-25 25 28 30 c24 25 32 28 49 19 12 -6 27 -19 33 -29z
m-957 -5 c0 -8 -5 -12 -10 -9 -6 4 -8 11 -5 16 9 14 15 11 15 -7z m585 -4 c3
-5 -1 -10 -10 -10 -9 0 -13 5 -10 10 3 6 8 10 10 10 2 0 7 -4 10 -10z m1367
-2 c-4 -4 -22 -10 -40 -12 -27 -3 -30 -1 -21 10 6 8 24 13 40 12 16 -1 25 -6
21 -10z m-766 -64 c-5 -13 -10 -14 -18 -6 -6 6 -8 18 -4 28 5 13 10 14 18 6 6
-6 8 -18 4 -28z m50 -11 c-10 -10 -19 5 -10 18 6 11 8 11 12 0 2 -7 1 -15 -2
-18z m650 17 c8 0 14 -7 14 -15 0 -9 6 -12 15 -9 8 4 15 1 15 -7 0 -7 -3 -9
-7 -6 -3 4 -15 0 -25 -10 -17 -15 -20 -15 -53 3 -32 17 -33 19 -18 36 9 10 23
16 31 13 7 -3 20 -5 28 -5z m-1029 -28 c-9 -2 -14 -8 -11 -14 4 -7 2 -8 -5 -4
-9 6 -9 11 0 22 6 7 16 11 23 7 7 -5 5 -9 -7 -11z m-470 -32 c1 -10 -2 -22 -9
-26 -8 -5 -9 -2 -5 10 4 10 1 19 -9 23 -12 5 -13 7 -3 14 16 10 22 5 26 -21z
m793 -38 c0 -7 -5 -22 -11 -33 -10 -19 -12 -19 -28 -5 -15 14 -19 33 -12 68 2
12 51 -17 51 -30z m-672 -8 l2 -29 -20 24 c-11 12 -17 27 -14 33 11 17 29 2
32 -28z m1236 -26 c-4 -6 -9 -7 -13 0 -10 16 -51 -5 -51 -27 0 -11 -9 -26 -21
-34 -23 -17 -59 -11 -59 9 0 15 54 47 63 37 4 -3 5 3 2 15 -2 11 6 30 18 42
l21 23 23 -27 c13 -15 20 -32 17 -38z m109 20 c-10 -18 -20 -6 -15 19 5 24 6
25 12 8 4 -11 6 -23 3 -27z m-533 -12 c-1 -4 7 -15 17 -24 19 -17 23 -35 11
-47 -3 -4 -9 2 -12 13 -4 11 -20 25 -36 31 -32 11 -33 12 -24 35 4 10 12 12
26 7 11 -4 19 -10 18 -15z m-114 -42 c-8 -21 -11 -17 -20 21 -7 28 -6 29 10
13 10 -10 14 -23 10 -34z m-952 -17 c10 -41 7 -50 -17 -42 -16 7 -25 38 -19
68 6 29 26 14 36 -26z m96 -16 c0 -23 -16 -36 -25 -21 -9 14 1 40 15 40 5 0
10 -9 10 -19z m73 -41 c4 -17 0 -20 -24 -20 -33 0 -38 14 -11 29 24 15 29 14
35 -9z m993 -26 c-3 -7 -1 -16 4 -19 15 -9 12 -45 -3 -45 -7 0 -21 6 -31 13
-16 12 -16 14 -2 26 9 8 16 22 16 33 0 11 5 16 11 13 6 -4 8 -13 5 -21z m-739
10 c-3 -3 -12 -4 -19 -1 -8 3 -5 6 6 6 11 1 17 -2 13 -5z m-716 -56 c0 -13 2
-31 4 -40 2 -10 0 -17 -3 -16 -4 1 -15 -2 -24 -6 -24 -11 -53 -3 -53 14 -1 18
45 68 63 69 6 1 12 -9 13 -21z m243 -18 c19 0 29 -30 12 -36 -20 -8 -78 50
-64 64 9 9 15 6 25 -8 8 -11 20 -20 27 -20z m1593 9 c1 -16 -1 -17 -17 -7 -20
13 -19 25 3 25 7 0 14 -8 14 -18z m-2067 -19 c0 -11 -7 -20 -15 -20 -16 0 -16
20 0 32 14 11 15 10 15 -12z m371 -42 c8 -30 2 -41 -28 -57 -29 -15 -29 -16
-27 24 3 62 41 85 55 33z m1619 18 c0 -8 -5 -18 -11 -22 -14 -8 -33 11 -25 25
10 16 36 13 36 -3z m-1895 -31 c0 -20 -30 -43 -41 -32 -11 11 15 59 29 54 6
-2 12 -12 12 -22z m1778 -15 c3 -11 2 -20 -3 -20 -8 0 -20 24 -20 41 0 17 17
1 23 -21z m-1906 -16 c-3 -3 -12 -4 -19 -1 -8 3 -5 6 6 6 11 1 17 -2 13 -5z
m2118 -4 c3 -6 -1 -7 -9 -4 -18 7 -21 14 -7 14 6 0 13 -4 16 -10z m-1830 -26
c-1 -14 -10 -33 -19 -42 -15 -15 -16 -14 -16 15 0 26 16 49 37 53 1 0 0 -12
-2 -26z m-65 -104 c-7 -22 -19 -40 -27 -40 -10 0 -12 -10 -7 -40 5 -33 3 -45
-14 -63 -24 -25 -23 -58 1 -66 12 -4 14 -10 7 -21 -5 -8 -10 -35 -10 -58 0
-36 4 -45 20 -49 11 -3 20 -9 20 -14 0 -17 -30 -22 -47 -8 -13 11 -17 11 -20
2 -3 -7 -9 -13 -14 -13 -5 0 -5 10 0 23 8 19 4 30 -19 57 -17 20 -34 31 -43
27 -9 -3 -23 3 -34 15 -11 13 -14 22 -7 25 46 16 53 56 13 68 -28 9 -22 65 7
65 7 0 16 11 20 25 3 14 10 25 16 25 5 0 6 5 3 10 -3 6 0 10 8 10 12 0 36 19
65 55 7 8 10 15 5 15 -4 0 2 6 13 14 17 13 21 13 38 -4 18 -17 18 -23 6 -60z
m194 -4 c-4 -11 -17 -32 -31 -46 -13 -14 -32 -34 -43 -46 -11 -12 -20 -30 -20
-41 0 -11 -11 -25 -24 -32 -13 -7 -28 -27 -33 -44 l-9 -31 -21 21 c-27 27 -20
59 18 79 41 21 55 51 35 73 -19 21 -21 42 -3 35 20 -7 85 23 97 46 14 26 43
15 34 -14z m-798 -35 c-8 -11 -8 -13 1 -7 9 5 11 2 7 -7 -3 -9 -17 -14 -34
-13 -32 2 -54 16 -27 16 10 0 17 8 17 20 0 12 6 27 12 34 18 19 40 -22 24 -43z
m159 9 c-3 -5 -10 -10 -16 -10 -5 0 -9 5 -9 10 0 6 7 10 16 10 8 0 12 -4 9
-10z m2455 -58 c0 -14 -11 -21 -26 -15 -8 3 -11 9 -8 14 7 11 34 12 34 1z
m-2536 -23 c-3 -5 -10 -7 -15 -3 -5 3 -7 10 -3 15 3 5 10 7 15 3 5 -3 7 -10 3
-15z m2713 15 c-3 -3 -12 -4 -19 -1 -8 3 -5 6 6 6 11 1 17 -2 13 -5z m363 -39
c31 -32 14 -49 -54 -54 -6 -1 -1 -8 10 -16 16 -13 17 -16 4 -25 -21 -14 -35
-7 -34 16 1 17 -4 19 -28 16 l-30 -5 16 32 c9 17 13 31 9 32 -13 1 51 28 68
29 8 0 26 -11 39 -25z m208 -35 c7 -11 19 -20 27 -20 8 0 15 -4 15 -9 0 -15
-34 -71 -43 -71 -5 0 -5 -4 -2 -10 3 -5 2 -10 -3 -10 -5 0 -12 -11 -15 -25 -2
-14 -2 -23 1 -20 3 2 12 -1 20 -8 10 -8 13 -8 9 -1 -11 18 62 79 77 64 6 -6
12 -15 12 -20 1 -6 2 -15 3 -20 0 -6 12 -15 26 -20 32 -12 33 -38 3 -35 -38 4
-39 5 -33 15 7 11 5 12 -40 14 -19 2 -35 -4 -43 -15 -13 -19 -36 -16 -60 8
-11 11 -65 19 -94 14 -5 0 -8 6 -8 14 0 8 -4 15 -9 15 -13 0 -32 -26 -24 -33
3 -4 -2 -7 -12 -7 -18 0 -18 -1 1 -15 18 -14 18 -15 0 -8 -18 6 -18 5 -1 -20
17 -26 34 -39 19 -15 -4 7 -3 8 5 4 6 -4 13 -1 16 6 3 8 24 14 53 15 35 1 52
-3 69 -19 12 -11 26 -17 32 -13 6 3 11 1 11 -4 0 -6 12 -11 26 -11 17 0 23 4
18 13 -6 9 -4 9 8 -1 13 -10 18 -10 24 -1 5 8 3 9 -6 4 -9 -6 -11 -4 -5 4 5 9
10 10 18 2 15 -15 30 -14 21 2 -5 7 0 6 11 -3 10 -8 20 -14 21 -13 11 7 32
-11 29 -25 -2 -9 -4 -24 -4 -33 -2 -28 -65 -40 -118 -22 -36 13 -52 13 -83 4
-45 -13 -53 -14 -45 -2 3 5 0 13 -6 17 -8 4 -9 3 -5 -4 4 -7 3 -12 -3 -12 -11
0 -43 55 -36 62 2 2 -4 9 -15 16 -14 8 -21 9 -26 0 -4 -6 -3 -8 4 -4 17 11 23
-11 6 -25 -12 -10 -15 -10 -12 2 2 10 -6 14 -31 12 -45 -2 -59 -18 -19 -21 51
-4 55 -17 15 -57 -30 -30 -35 -40 -27 -60 5 -12 6 -26 3 -29 -4 -3 1 -6 10 -6
14 0 15 -3 2 -27 -8 -16 -16 -36 -19 -46 -3 -9 -19 -20 -36 -23 -16 -4 -30
-10 -30 -15 0 -5 -9 -9 -20 -9 -14 0 -27 -14 -42 -45 -17 -35 -26 -44 -42 -41
-12 3 -36 8 -54 12 -33 7 -33 6 -30 -27 3 -29 7 -34 28 -33 14 0 38 4 54 9 22
6 28 5 24 -6 -2 -8 -21 -15 -41 -17 -20 -2 -37 -8 -37 -14 0 -6 -3 -9 -6 -5
-7 7 -34 -15 -28 -24 2 -3 -3 -6 -10 -6 -8 0 -12 10 -10 28 3 22 -1 28 -19 31
-12 2 -21 9 -20 15 2 7 -4 10 -15 7 -16 -5 -16 -5 0 9 10 8 15 17 11 20 -3 4
0 7 7 7 31 0 -18 32 -56 37 -22 3 -41 9 -42 14 -2 5 -10 16 -18 23 -8 8 -14
19 -14 25 0 14 35 32 45 23 4 -4 1 3 -6 16 -19 31 -53 28 -79 -8 -26 -37 -44
-38 -66 -5 -20 31 -8 50 48 72 21 8 38 19 38 24 0 5 3 8 8 8 22 -4 32 3 32 21
0 24 -8 25 -32 4 -14 -13 -25 -15 -50 -8 l-32 10 21 21 c12 12 18 25 15 29 -4
4 1 4 10 1 9 -3 18 -1 21 6 2 7 15 0 31 -16 16 -16 36 -29 45 -30 18 -1 27
-40 14 -61 -14 -22 -14 -56 1 -56 24 0 77 26 69 35 -5 4 2 2 15 -4 25 -13 27
-28 7 -55 -16 -21 -11 -36 12 -36 9 0 22 -8 28 -17 12 -16 18 -13 62 32 62 63
71 83 35 78 -15 -3 -36 -8 -47 -13 -36 -15 -53 -19 -58 -13 -7 6 13 63 21 61
4 -1 18 4 32 12 31 17 70 13 86 -8 7 -9 11 -19 9 -22 -2 -3 10 -7 26 -8 17 -1
28 2 25 7 -4 5 -1 13 5 16 6 5 2 13 -12 23 l-22 15 22 9 c28 10 18 28 -15 28
-14 0 -22 4 -19 10 3 6 1 10 -5 10 -6 0 -11 12 -10 28 3 46 1 52 -22 61 -33
12 -56 -12 -60 -62 -2 -23 -9 -42 -17 -45 -8 -3 -11 0 -7 7 4 7 2 9 -8 5 -8
-3 -18 -22 -23 -42 -7 -30 -13 -37 -34 -38 -14 -1 -34 5 -45 13 -21 16 -18 19
52 71 30 21 24 52 -10 52 -27 0 -40 -9 -55 -37 -12 -24 -50 -32 -52 -10 -3 37
6 64 32 88 48 45 86 56 85 25 -1 -12 5 -21 14 -21 10 0 15 11 15 35 0 32 3 35
37 41 20 3 43 11 51 17 8 7 18 8 23 4 4 -4 2 1 -5 11 -12 15 -12 17 3 11 11
-4 16 -2 14 7 -2 8 3 13 11 11 7 -1 19 2 27 9 22 18 36 0 29 -40 -5 -32 -3
-37 14 -38 21 -2 65 46 95 104 15 30 18 31 48 22 46 -13 88 -11 89 4 1 6 0 22
-1 35 -2 28 30 30 48 2z m-2991 -79 c1 -29 4 -59 7 -66 3 -8 1 -17 -4 -20 -6
-4 -11 2 -12 12 -2 32 -3 38 -10 48 -3 6 -6 27 -6 48 0 59 23 39 25 -22z m270
-33 c-3 -7 -5 -2 -5 12 0 14 2 19 5 13 2 -7 2 -19 0 -25z m2124 23 c-11 -7
-11 -9 0 -13 10 -3 7 -13 -10 -36 -12 -18 -27 -32 -32 -32 -6 0 -7 -5 -4 -10
4 -6 3 -10 -2 -9 -26 4 -43 -3 -41 -18 5 -58 -26 -76 -63 -37 l-23 24 25 28
c14 15 33 39 42 55 10 15 24 27 33 27 8 0 17 6 20 13 2 7 19 14 37 15 21 1 28
-1 18 -7z m-272 -110 c16 -10 6 -31 -14 -31 -8 0 -19 9 -25 20 -9 17 -8 20 7
20 10 0 24 -4 32 -9z m-2139 -21 c0 -5 -5 -10 -11 -10 -5 0 -7 5 -4 10 3 6 8
10 11 10 2 0 4 -4 4 -10z m2035 -73 c12 -36 11 -41 -7 -55 -24 -17 -23 -58 0
-64 27 -7 22 -64 -8 -95 -20 -20 -21 -25 -8 -36 16 -13 41 -52 51 -80 5 -12 0
-21 -16 -27 -12 -6 -36 -19 -53 -29 -17 -10 -45 -22 -62 -26 -35 -7 -40 -30
-12 -52 21 -18 43 -16 66 5 28 27 43 18 34 -21 -9 -40 -48 -107 -63 -108 -23
-2 -42 3 -48 13 -4 6 -16 8 -28 5 -12 -3 -24 -1 -27 4 -9 15 -34 10 -34 -6 0
-17 -40 -21 -56 -5 -10 10 -27 -3 -61 -44 -29 -35 -2 -35 42 -1 18 13 36 21
40 17 4 -4 30 -7 58 -7 41 0 52 -4 55 -17 2 -11 -6 -22 -22 -29 -14 -7 -26
-20 -26 -29 0 -43 -51 -53 -76 -15 -9 14 -24 25 -32 23 -18 -4 -25 -38 -10
-55 8 -10 6 -13 -6 -13 -9 0 -19 7 -22 15 -4 8 -12 15 -19 15 -7 0 -15 9 -18
20 -8 31 -37 24 -102 -25 -57 -43 -83 -56 -71 -36 3 5 -17 1 -44 -10 -28 -10
-58 -19 -69 -19 -10 0 -31 -6 -47 -14 -16 -8 -49 -16 -73 -19 -25 -3 -50 -11
-55 -20 -8 -10 -18 -12 -35 -5 -23 8 -23 9 -6 28 14 15 31 20 69 20 49 0 66 7
141 60 67 47 97 62 157 80 60 18 69 25 93 65 14 25 30 45 35 45 5 0 35 25 67
56 32 31 68 63 81 71 13 9 27 34 33 60 7 24 20 48 30 53 10 6 27 29 38 53 10
23 37 60 60 83 l40 41 -24 11 c-26 12 -35 55 -15 67 6 3 10 15 10 26 0 27 21
58 36 52 7 -2 15 -14 19 -26z m-1913 -81 c8 -12 1 -46 -13 -61 -19 -19 -46 34
-40 78 1 11 44 -3 53 -17z m1968 -21 c0 -15 -27 -28 -41 -20 -4 3 -3 17 3 30
9 19 14 22 25 14 7 -6 13 -17 13 -24z m115 13 c29 -13 31 -21 10 -38 -19 -15
-52 -4 -58 20 -8 32 6 37 48 18z m-2000 -38 c-5 -8 -11 -8 -17 -2 -6 6 -7 16
-3 22 5 8 11 8 17 2 6 -6 7 -16 3 -22z m-233 -22 c21 -17 31 -48 15 -48 -21 0
-37 16 -42 38 -4 25 4 28 27 10z m2878 -3 c0 -6 -6 -12 -13 -12 -8 0 -14 6
-14 12 0 6 6 12 14 12 7 0 13 -6 13 -12z m106 -70 c2 -17 -11 -18 -41 -5 -18
8 -17 9 8 9 20 1 26 5 21 14 -4 6 -3 8 1 4 5 -4 10 -14 11 -22z m95 14 c3 7
12 9 22 6 9 -4 15 -10 12 -14 -2 -4 2 -8 10 -8 8 0 15 4 15 9 0 4 5 8 11 8 5
0 8 -4 5 -8 -3 -5 8 -7 23 -4 19 3 30 -1 34 -12 7 -18 0 -19 -93 -16 -56 2
-73 12 -63 37 4 11 8 12 13 3 6 -9 9 -9 11 -1z m-919 -18 c8 -11 30 -22 51
-26 47 -9 53 -19 20 -34 -22 -10 -33 -9 -67 8 -23 11 -53 23 -68 26 -31 6 -38
31 -10 38 38 10 61 6 74 -12z m-2108 -6 c3 -8 1 -15 -4 -15 -6 0 -10 7 -10 15
0 8 2 15 4 15 2 0 6 -7 10 -15z m76 -21 c0 -9 -28 -34 -39 -34 -14 0 -23 18
-16 30 6 10 55 14 55 4z m2934 -27 c11 -12 20 -28 20 -35 -1 -7 -2 -16 -3 -22
-2 -20 -43 -9 -71 20 -30 31 -41 52 -17 32 10 -8 16 -6 25 9 15 24 20 24 46
-4z m-758 -64 c4 -21 11 -43 16 -50 11 -14 1 -20 -32 -19 -23 1 -25 5 -28 54
-3 46 -1 52 17 52 15 0 22 -9 27 -37z m479 7 c4 -11 17 -28 31 -36 13 -9 24
-21 24 -26 0 -5 9 -17 20 -26 20 -16 19 -17 -24 -17 -24 0 -44 2 -44 5 3 47
-2 52 -46 48 -47 -5 -49 -2 -26 45 16 33 55 37 65 7z m-3001 -31 c-3 -5 -14
-9 -26 -9 -17 0 -18 3 -8 14 12 15 44 10 34 -5z m3163 -4 c0 -8 -4 -12 -9 -9
-4 3 -8 9 -8 15 0 5 4 9 8 9 5 0 9 -7 9 -15z m153 -35 c-8 -5 -17 -6 -20 -3
-3 3 1 8 8 10 6 3 9 10 6 16 -4 7 -1 7 7 -1 12 -11 12 -14 -1 -22z m-25 -68
c-2 -9 -4 -19 -5 -22 0 -3 -5 3 -11 13 -5 9 -7 22 -4 27 9 15 24 2 20 -18z
m-658 3 c8 -21 1 -26 -47 -35 -22 -4 -38 -5 -36 -2 3 3 -2 11 -12 18 -15 12
-13 13 20 14 20 0 40 5 43 10 9 15 25 12 32 -5z m117 -22 c4 -9 2 -21 -4 -28
-12 -14 -62 -27 -54 -14 3 5 1 9 -5 9 -13 0 -5 41 10 51 16 10 47 0 53 -18z
m336 -48 c-7 -8 -17 -15 -23 -15 -6 0 -2 7 9 15 25 19 30 19 14 0z m-2715 -25
c3 -5 -1 -10 -10 -10 -9 0 -13 5 -10 10 3 6 8 10 10 10 2 0 7 -4 10 -10z
m2298 -19 c3 -11 -1 -25 -9 -32 -12 -9 -14 -5 -14 25 0 38 14 42 23 7z m422
-40 c-3 -5 -1 -12 5 -16 6 -4 8 -11 4 -16 -4 -6 -11 -6 -20 2 -11 9 -11 15 -3
25 13 16 23 19 14 5z m-2922 -27 c11 -11 -3 -24 -18 -18 -8 4 -12 10 -9 15 6
11 18 12 27 3z m2307 -15 c0 -6 -7 -12 -16 -16 -13 -5 -13 -7 -2 -15 8 -5 3
-7 -16 -4 -16 3 -31 8 -35 12 -3 4 2 4 12 1 11 -4 16 -3 12 4 -12 18 3 38 24
32 12 -3 21 -9 21 -14z m92 -29 c5 0 7 -3 5 -7 -3 -5 1 -14 9 -20 8 -8 15 -9
19 -3 9 14 25 2 25 -18 -1 -16 -32 -62 -43 -62 -3 0 -7 9 -10 21 -3 11 -19 25
-36 32 -26 9 -30 16 -29 44 2 41 28 62 42 32 5 -10 13 -19 18 -19z m363 -80
c0 -27 -22 -39 -31 -16 -8 22 3 49 19 43 6 -2 12 -14 12 -27z m-637 -5 c-11
-24 -12 -24 -30 -9 -26 24 -22 34 12 34 28 0 29 -1 18 -25z m-433 -22 c-2 -10
-4 -20 -4 -22 -1 -2 -8 2 -16 9 -13 11 -13 15 -3 21 20 13 27 11 23 -8z m902
-59 c-3 -3 -12 -4 -19 -1 -8 3 -5 6 6 6 11 1 17 -2 13 -5z m-1543 -60 c22 -8
8 -34 -19 -34 -36 0 -54 10 -48 26 5 14 39 19 67 8z m1167 -17 c-13 -13 -26
-3 -16 12 3 6 11 8 17 5 6 -4 6 -10 -1 -17z m-674 7 c-3 -3 -12 -4 -19 -1 -8
3 -5 6 6 6 11 1 17 -2 13 -5z m801 -15 c4 -24 -35 -32 -41 -8 -3 10 -2 21 1
24 11 11 37 0 40 -16z m402 -3 c0 -2 -7 -7 -16 -10 -8 -3 -12 -2 -9 4 6 10 25
14 25 6z m-464 -45 c-10 -10 -13 -21 -8 -22 5 -2 2 -12 -7 -21 -10 -10 -22
-14 -29 -9 -15 9 -5 41 13 41 7 0 18 7 25 15 7 8 15 15 18 15 3 0 -3 -9 -12
-19z m115 -35 c25 -11 9 -59 -21 -66 l-23 -6 26 -17 c32 -21 35 -53 7 -62 -11
-4 -18 -11 -15 -16 4 -5 -3 -5 -18 0 -17 7 -28 6 -36 -2 -9 -9 -11 -8 -6 6 5
12 2 17 -9 17 -19 0 -20 28 -2 53 11 14 15 15 20 5 3 -7 4 -3 2 10 -2 12 -1
22 3 22 7 0 9 6 13 48 2 18 28 22 59 8z m-297 -123 c-10 -8 -25 -12 -33 -11
-26 5 -21 23 12 38 28 13 32 13 36 1 2 -8 -5 -21 -15 -28z m-638 -105 c5 -7 3
-8 -7 -3 -12 8 -12 6 -1 -8 20 -24 6 -60 -21 -53 -12 3 -30 6 -39 6 -23 0 -25
45 -3 57 23 13 63 14 71 1z m564 -14 c0 -8 -4 -12 -10 -9 -5 3 -10 1 -10 -5 0
-8 -6 -8 -20 0 -26 14 -17 30 16 30 15 0 24 -6 24 -16z m220 9 c-8 -3 -18 -10
-21 -15 -3 -5 -13 -6 -23 -2 -23 9 -1 24 34 23 15 0 19 -3 10 -6z m346 -52 c1
-12 -3 -24 -9 -28 -6 -3 -7 -1 -4 4 4 6 0 13 -8 17 -8 3 -12 12 -9 21 9 22 29
13 30 -14z m-658 -1 c10 -17 10 -20 -3 -20 -8 0 -15 2 -15 4 0 2 -3 11 -6 20
-9 23 9 20 24 -4z m184 -44 c3 3 9 0 14 -7 4 -8 3 -10 -4 -5 -7 4 -12 1 -12
-8 0 -9 -4 -16 -10 -16 -5 0 -10 5 -10 11 0 19 -43 5 -46 -15 -4 -25 -22 -36
-63 -36 -29 0 -32 2 -21 15 7 8 9 15 4 15 -23 1 24 20 49 20 15 0 27 3 28 8 5
55 27 71 49 36 9 -13 19 -22 22 -18z m-842 14 c0 -10 -9 -24 -20 -30 -17 -9
-20 -8 -20 8 0 18 18 42 32 42 4 0 8 -9 8 -20z m1010 1 c0 -11 -4 -23 -10 -26
-6 -4 -10 5 -10 19 0 14 5 26 10 26 6 0 10 -9 10 -19z m-1568 -38 c55 -21 60
-31 40 -65 -12 -21 -24 -28 -46 -28 -44 0 -19 -20 30 -24 23 -2 59 4 88 16 32
12 53 15 59 9 5 -5 16 -7 23 -4 17 6 46 -16 38 -29 -3 -5 0 -9 7 -7 30 4 47
-2 53 -16 9 -23 -28 -18 -61 8 -25 21 -34 23 -60 18 -19 -3 -33 -19 -47 -53
-14 -34 -14 -38 1 -54 16 -15 18 -14 36 10 10 14 23 24 27 21 5 -3 11 -1 15 5
4 6 11 8 16 5 15 -10 -9 -45 -31 -45 -20 0 -53 -27 -46 -38 2 -4 -6 -8 -17 -8
-50 -4 -67 -9 -72 -22 -4 -12 -8 -12 -21 -1 -13 10 -17 10 -25 -2 -5 -8 -9
-20 -9 -28 0 -18 29 -51 44 -51 6 0 17 -9 23 -19 7 -11 29 -25 50 -32 21 -6
41 -17 45 -22 9 -14 87 -12 101 2 19 19 54 12 71 -14 9 -14 21 -23 27 -19 5 3
16 1 24 -6 13 -11 13 -20 -1 -67 -4 -14 -2 -23 5 -23 6 0 11 6 11 13 0 14 13
17 59 17 14 0 34 6 45 13 24 15 82 17 78 2 -2 -5 -12 -9 -22 -7 -11 2 -20 -2
-20 -7 0 -6 6 -11 13 -11 7 0 22 -7 33 -16 10 -8 13 -12 6 -9 -11 6 -11 3 -1
-13 12 -19 14 -20 28 -3 17 18 95 46 85 30 -3 -5 1 -9 10 -9 8 0 17 6 19 13 3
6 6 3 6 -8 1 -14 4 -16 10 -7 6 10 17 4 47 -22 21 -20 49 -36 62 -38 55 -4 78
-7 97 -12 11 -2 22 -5 25 -5 2 -1 -1 -6 -7 -12 -6 -6 -29 -11 -51 -11 -37 1
-40 -1 -51 -40 -9 -29 -9 -44 -2 -51 6 -6 11 -19 11 -29 0 -10 4 -18 10 -18 9
0 18 24 24 63 3 21 16 35 16 17 0 -9 4 -9 13 -2 6 5 24 8 40 6 15 -1 25 1 23
5 -3 4 5 7 16 6 22 -2 39 -25 19 -25 -6 0 -11 -7 -11 -16 0 -9 -9 -27 -19 -40
-22 -28 -17 -64 9 -64 22 0 70 -37 70 -54 0 -27 -54 -61 -100 -62 -25 -1 -60
-6 -78 -12 -37 -12 -59 -7 -84 20 -11 13 -18 15 -23 8 -4 -6 4 -23 16 -38 33
-38 37 -40 65 -34 13 2 31 -1 38 -8 12 -9 21 -7 45 11 16 12 33 29 36 37 5 12
8 12 28 0 12 -8 37 -15 54 -16 44 -1 57 -10 39 -28 -16 -16 -36 -19 -36 -5 0
4 -10 8 -22 7 -21 -1 -23 -6 -23 -65 0 -84 10 -95 82 -91 42 2 58 -7 43 -25
-8 -10 -8 -15 1 -20 8 -6 8 -9 -1 -15 -15 -9 -81 10 -74 21 2 4 -5 6 -18 4
-12 -3 -31 3 -42 13 -12 9 -18 13 -14 8 8 -10 -19 -40 -44 -49 -13 -5 -18 -1
-18 13 0 33 -46 44 -78 17 -10 -7 -17 -5 -28 11 -8 12 -23 22 -33 22 -44 0
-57 60 -16 78 24 11 32 36 17 58 -20 29 -104 41 -86 13 3 -6 -3 -19 -15 -30
-12 -11 -21 -27 -21 -35 0 -12 -5 -10 -18 7 -13 15 -24 20 -37 15 -17 -6 -15
-10 13 -36 18 -16 32 -36 32 -45 0 -9 4 -14 10 -10 13 8 61 -5 54 -16 -3 -5
-14 -9 -24 -9 -23 0 -31 -21 -13 -38 7 -8 10 -18 7 -24 -5 -7 -12 -5 -20 6
-16 23 -69 13 -87 -15 -6 -10 -17 -19 -24 -19 -7 0 -10 -10 -7 -25 3 -15 -1
-27 -8 -30 -20 -8 -22 -104 -3 -112 9 -3 14 -12 11 -20 -3 -8 -1 -11 4 -8 6 3
10 2 10 -4 0 -5 3 -17 6 -26 5 -13 2 -16 -17 -13 -26 3 -53 46 -40 63 4 5 4
24 0 41 -7 26 -13 30 -33 27 -13 -3 -26 -13 -29 -24 -3 -10 -16 -23 -30 -28
-14 -6 -30 -19 -36 -29 -6 -11 -21 -27 -35 -35 -24 -16 -27 -16 -60 6 -73 47
-55 76 35 57 51 -11 64 -11 67 -1 11 33 68 81 96 81 22 0 27 4 22 16 -3 9 -6
21 -6 28 0 20 -29 15 -36 -6 -3 -10 -9 -16 -14 -13 -5 3 -11 1 -15 -5 -3 -5
-26 -10 -51 -10 -43 0 -44 0 -44 34 0 31 13 46 42 50 3 1 10 4 14 9 4 4 21 7
38 7 24 0 27 -3 16 -10 -13 -8 -12 -10 3 -10 10 0 16 -4 13 -9 -6 -9 18 -23
26 -15 3 2 3 17 0 33 -4 27 -6 29 -43 24 -46 -7 -83 18 -73 49 5 17 2 20 -28
22 -7 1 -13 -14 -13 -37 -2 -30 -9 -44 -41 -72 -21 -19 -45 -34 -52 -35 -17 0
-34 47 -28 80 4 25 1 27 -32 26 -26 -1 -36 -6 -38 -20 -3 -23 -21 -36 -50 -36
-24 0 -35 18 -41 65 -2 17 -14 40 -27 51 -13 12 -26 29 -28 39 -1 10 -18 23
-36 29 -18 6 -31 14 -28 17 3 3 -1 6 -9 6 -11 0 -12 -4 -4 -14 9 -10 7 -20 -6
-39 -9 -15 -13 -24 -8 -21 5 4 10 0 10 -8 0 -8 -5 -13 -11 -12 -12 2 -12 -6
-2 -39 10 -32 -19 -39 -33 -8 -6 13 -7 24 -2 24 4 0 8 18 9 39 2 44 -17 71
-49 71 -18 0 -19 5 -13 60 l6 60 -76 -1 c-42 -1 -77 -5 -77 -10 -1 -5 -2 -13
-3 -18 0 -5 -12 -17 -25 -28 -20 -16 -21 -20 -8 -31 12 -11 17 -8 26 18 6 18
15 29 20 26 5 -4 13 -2 16 4 5 8 15 6 32 -5 13 -9 30 -14 37 -12 7 3 13 -1 13
-9 0 -9 -11 -14 -28 -14 -37 0 -42 -12 -25 -52 7 -18 18 -46 23 -63 4 -16 18
-35 31 -41 21 -10 21 -11 4 -27 -23 -21 -29 -21 -49 -2 -21 22 -47 1 -33 -25
20 -37 5 -113 -15 -80 -11 17 -20 11 -32 -20 -10 -26 -8 -31 14 -46 14 -9 23
-11 19 -6 -3 6 -2 13 3 16 5 4 8 -2 6 -11 -1 -10 1 -23 6 -29 5 -6 3 -18 -4
-28 -11 -15 -15 -15 -62 0 -28 9 -52 19 -54 20 -3 2 6 15 19 29 13 14 20 26
17 26 -11 2 -21 5 -39 12 -10 4 -25 9 -33 12 -12 4 -14 9 -5 24 13 25 3 51
-20 51 -10 0 -23 7 -30 15 -7 8 -16 13 -20 10 -4 -2 -17 9 -29 26 -18 24 -25
28 -41 19 -11 -6 -20 -20 -20 -30 0 -22 -1 -23 -24 -14 -23 9 -20 25 9 49 14
11 28 31 30 44 3 14 11 29 20 33 16 10 21 58 6 58 -28 0 -62 -21 -59 -37 2
-10 -4 -19 -14 -21 -20 -4 -24 18 -7 35 18 18 -7 53 -39 53 -33 0 -71 52 -53
73 12 15 10 34 -7 64 -7 12 -12 28 -12 36 0 7 -14 32 -32 55 -26 34 -34 39
-46 29 -13 -10 -14 -7 -8 25 4 24 2 46 -5 60 -16 30 -12 97 8 128 33 49 215
210 239 210 13 0 54 42 54 56 0 22 31 46 44 35 7 -6 42 -13 79 -17 l67 -7 15
36 c14 34 16 35 46 27 18 -5 39 -16 49 -25 9 -8 21 -12 25 -8 5 5 3 0 -4 -9
-7 -10 -11 -18 -8 -18 3 0 13 -3 21 -6 13 -5 15 -2 9 14 -5 12 -11 20 -14 19
-12 -4 -38 25 -33 38 3 7 -3 16 -14 19 -23 8 -46 52 -31 62 5 3 17 3 25 0 23
-9 51 10 62 44 6 16 15 30 19 31 4 0 29 1 56 2 l47 1 0 36 c0 32 6 50 16 50 2
0 23 -8 46 -17z m1628 -13 c6 -11 9 -20 6 -20 -3 0 8 -14 24 -31 15 -17 33
-29 38 -25 5 3 12 -7 14 -23 4 -29 0 -31 -37 -15 -11 4 -39 8 -62 8 -24 0 -37
4 -30 8 7 4 9 8 4 8 -4 0 -1 13 7 28 10 19 11 33 5 45 -10 18 -4 37 11 37 5 0
14 -9 20 -20z m-747 -19 c3 -11 -1 -25 -8 -31 -10 -8 -17 -5 -29 12 -15 21
-15 24 0 35 20 15 30 10 37 -16z m945 -12 c-11 -7 -11 -9 0 -9 7 0 11 -4 7 -9
-3 -5 7 -19 23 -30 23 -16 28 -26 26 -58 -1 -21 -3 -46 -3 -56 -1 -26 -25 -31
-66 -12 -23 11 -48 16 -70 12 -31 -5 -35 -3 -35 17 0 34 10 38 38 16 13 -11
28 -18 31 -15 4 2 8 39 10 82 3 109 1 103 28 86 18 -12 21 -18 11 -24z m272
20 c12 -6 12 -9 -5 -15 -11 -4 -23 -12 -27 -18 -5 -7 -8 -4 -8 7 0 16 -10 21
-37 18 -7 -1 -13 3 -13 9 0 6 4 9 9 5 5 -3 13 -1 16 5 7 11 35 6 65 -11z
m-2361 -15 c26 -13 32 -21 29 -43 -2 -18 -9 -26 -23 -26 -16 0 -20 7 -21 33 0
18 -7 38 -15 43 -23 14 -5 10 30 -7z m1445 -20 c16 -6 23 -33 9 -35 -5 0 -16
-2 -25 -4 -21 -4 -32 10 -24 30 6 16 16 18 40 9z m-129 -51 c5 -18 2 -23 -12
-23 -11 0 -28 -7 -39 -15 -26 -19 -55 -20 -48 0 4 8 10 15 16 15 15 0 35 24
31 37 -4 12 28 24 38 14 4 -3 10 -16 14 -28z m-357 -28 c-3 -3 -9 2 -12 12 -6
14 -5 15 5 6 7 -7 10 -15 7 -18z m612 4 c38 -8 55 -8 63 0 15 15 33 14 72 -5
25 -11 32 -20 28 -35 -8 -28 -40 -44 -59 -28 -8 6 -36 13 -62 15 -65 4 -86 10
-116 29 -49 33 -15 43 74 24z m-110 -18 c14 -4 24 -13 23 -19 -2 -6 4 -9 12
-6 18 7 19 -3 2 -20 -7 -7 -26 -11 -43 -9 -23 4 -37 -2 -62 -26 -37 -36 -52
-38 -77 -11 -10 11 -21 17 -25 15 -11 -7 -6 22 5 32 4 4 5 3 1 -4 -3 -6 -2
-14 3 -18 6 -3 21 10 33 29 29 45 66 55 128 37z m-343 -7 c-3 -3 -12 -4 -19
-1 -8 3 -5 6 6 6 11 1 17 -2 13 -5z m-1160 -20 c7 -19 -4 -31 -38 -39 -24 -6
-25 -4 -21 24 3 25 9 31 28 31 14 0 27 -7 31 -16z m-1064 -31 c-3 -7 -9 -13
-14 -13 -11 0 -12 34 -2 43 9 10 22 -13 16 -30z m97 1 c0 -15 -10 -17 -34 -8
-13 5 -14 10 -6 20 14 15 40 8 40 -12z m2944 20 c9 -3 16 -14 15 -23 0 -9 -3
-11 -5 -5 -3 7 -14 10 -25 7 -15 -4 -18 -2 -13 11 7 18 7 18 28 10z m-804 -56
c0 -32 -17 -37 -35 -11 -16 22 -9 42 16 40 14 -1 19 -9 19 -29z m1300 -35 c0
-17 -14 -23 -30 -13 -12 7 -12 10 3 16 17 6 14 24 -4 24 -6 0 -7 -4 -4 -10 3
-5 -1 -10 -9 -10 -19 0 -21 16 -3 24 9 5 9 7 -1 12 -6 3 -9 10 -6 16 7 11 53
-39 54 -59z m-1430 22 c7 -8 16 -12 21 -9 16 9 10 -3 -8 -17 -11 -10 -14 -10
-9 -1 5 8 0 12 -13 12 -12 0 -21 7 -21 15 0 19 14 19 30 0z m-426 -22 c-6 -32
-9 -36 -29 -39 -24 -4 -17 26 8 36 13 5 16 9 7 10 -13 0 -13 1 0 10 8 5 16 10
17 10 1 0 -1 -12 -3 -27z m352 -10 c21 -28 17 -45 -8 -38 -26 8 -50 34 -42 46
9 15 36 10 50 -8z m-1835 -38 c1 -8 2 -21 3 -27 1 -7 -2 -16 -7 -19 -5 -4 -3
-16 4 -27 16 -26 0 -48 -27 -38 -12 5 -15 14 -10 37 3 18 6 44 6 60 0 30 29
43 31 14z m2319 5 c0 -5 -9 -10 -20 -10 -11 0 -20 5 -20 10 0 6 9 10 20 10 11
0 20 -4 20 -10z m-74 -20 c6 0 10 -10 9 -22 -1 -13 -3 -33 -4 -46 0 -13 -5
-20 -11 -17 -5 3 -10 0 -10 -7 -1 -7 -8 -1 -16 15 -9 17 -23 27 -37 27 -13 0
-17 3 -11 8 6 4 15 18 19 30 5 18 12 22 28 18 12 -3 27 -6 33 -6z m130 -32 c1
-32 -2 -34 -24 -12 -24 24 -23 41 2 40 16 -1 21 -8 22 -28z m-283 -6 c15 -7
14 -10 -10 -24 -24 -14 -36 -15 -73 -6 -70 17 -78 22 -37 26 24 2 43 -2 53
-12 20 -21 23 -20 17 4 -6 21 14 26 50 12z m844 -44 c-3 -7 -5 -2 -5 12 0 14
2 19 5 13 2 -7 2 -19 0 -25z m-593 -9 c-3 -5 0 -8 6 -7 7 2 14 -5 15 -14 2
-10 -1 -18 -7 -18 -6 0 -7 -7 -4 -16 3 -8 2 -12 -3 -9 -5 3 -12 1 -16 -4 -8
-14 -41 20 -40 41 2 24 24 48 41 41 7 -3 11 -9 8 -14z m36 11 c0 -5 -4 -10
-10 -10 -5 0 -10 5 -10 10 0 6 5 10 10 10 6 0 10 -4 10 -10z m-544 -37 c-6
-15 -9 -15 -16 -3 -6 9 -5 17 3 22 16 10 21 2 13 -19z m266 -70 c7 -6 41 -13
75 -15 70 -5 82 -11 67 -36 -8 -12 -25 -16 -75 -15 -35 1 -80 4 -99 7 -19 2
-39 5 -43 5 -13 1 -25 45 -15 58 11 13 72 10 90 -4z m1483 -61 c-10 -30 -17
-36 -36 -34 -33 4 -41 15 -34 45 7 26 32 37 67 29 14 -3 15 -8 3 -40z m95 -52
c0 -28 -2 -30 -41 -30 -28 0 -38 -4 -33 -12 5 -7 3 -8 -6 -3 -10 6 -4 17 23
42 45 41 57 42 57 3z m-1440 -60 c-19 -13 -30 -13 -30 0 0 6 10 10 23 10 18 0
19 -2 7 -10z m90 -116 c0 -8 -4 -12 -10 -9 -5 3 -10 10 -10 16 0 5 5 9 10 9 6
0 10 -7 10 -16z m1286 -29 c-4 -24 -13 -27 -19 -5 -3 13 0 20 8 20 7 0 12 -7
11 -15z m34 -50 c0 -14 -17 -15 -39 -1 -10 7 -11 10 0 16 16 11 39 1 39 -15z
m-63 -141 c-3 -3 -12 -4 -19 -1 -8 3 -5 6 6 6 11 1 17 -2 13 -5z m-1663 -65
c-3 -5 -10 -7 -15 -3 -5 3 -7 10 -3 15 3 5 10 7 15 3 5 -3 7 -10 3 -15z m-858
-200 c11 1 11 -2 13 -72 l1 -53 59 -27 c66 -30 75 -32 66 -14 -4 6 1 3 9 -7 9
-11 16 -25 16 -32 0 -19 -40 -64 -57 -64 -12 0 -14 -7 -10 -28 7 -32 -5 -58
-22 -48 -22 14 -43 67 -32 80 6 7 9 15 6 18 -3 2 5 4 17 4 11 -1 23 5 25 12 6
17 -32 15 -46 -2 -11 -13 -15 -12 -32 2 -15 13 -34 16 -80 14 -37 -3 -65 1
-74 8 -19 16 -19 30 0 30 8 0 17 11 21 25 3 14 14 31 23 38 9 6 18 23 19 37 2
14 9 31 14 38 6 6 8 12 5 12 -3 0 4 11 16 24 13 14 24 20 28 14 3 -5 10 -9 15
-9z m738 -34 c-7 -16 -24 -21 -24 -6 0 8 7 13 27 20 1 1 0 -6 -3 -14z m-854
-25 c0 -9 -6 -17 -14 -17 -8 0 -14 8 -13 17 0 9 7 17 14 17 7 0 13 -8 13 -17z
m956 -5 c16 -8 25 -15 19 -15 -5 0 6 -14 25 -31 30 -28 32 -32 16 -41 -29 -16
-140 9 -167 38 -12 13 -29 24 -38 24 -35 0 27 29 70 33 24 2 45 4 45 5 1 1 15
-5 30 -13z m311 -1 c-3 -3 -12 -4 -19 -1 -8 3 -5 6 6 6 11 1 17 -2 13 -5z
m-464 -64 c3 -11 1 -18 -4 -14 -5 3 -9 12 -9 20 0 20 7 17 13 -6z m-363 -24
c-1 -20 -2 -20 -14 -3 -7 9 -19 17 -27 17 -12 0 -12 2 0 9 21 13 41 2 41 -23z
m2177 12 c-3 -8 -6 -5 -6 6 -1 11 2 17 5 13 3 -3 4 -12 1 -19z m-2127 -92 c0
-11 -19 -15 -25 -6 -3 5 1 10 9 10 9 0 16 -2 16 -4z m-40 -26 c0 -5 -9 -10
-20 -10 -11 0 -20 5 -20 10 0 6 9 10 20 10 11 0 20 -4 20 -10z m500 0 c0 -5
-5 -10 -11 -10 -5 0 -7 5 -4 10 3 6 8 10 11 10 2 0 4 -4 4 -10z m214 1 c3 -5
-1 -11 -9 -15 -9 -3 -15 0 -15 9 0 16 16 20 24 6z m492 -4 c4 -4 0 -7 -9 -7
-9 0 -18 4 -21 9 -7 10 20 9 30 -2z m884 -40 c0 -8 -3 -17 -6 -20 -10 -9 -46
12 -39 24 9 14 45 11 45 -4z m-788 -9 c10 -2 20 -7 24 -11 4 -3 15 -2 25 4 13
7 19 6 19 -1 0 -6 4 -8 10 -5 5 3 7 0 5 -7 -10 -25 19 -47 65 -52 25 -2 76
-20 115 -40 38 -20 77 -36 87 -36 10 0 25 -14 33 -30 19 -37 70 -70 106 -70
19 0 35 -11 53 -35 15 -19 32 -32 39 -29 21 8 68 -14 74 -34 5 -18 64 -65 119
-95 19 -10 34 -25 34 -33 0 -8 5 -14 11 -14 5 0 8 -4 4 -9 -8 -15 14 -24 29
-12 15 12 79 -27 96 -59 15 -27 -9 -27 -40 0 -24 21 -50 27 -50 11 0 -5 -7
-17 -16 -26 -12 -12 -19 -13 -29 -5 -8 6 -12 17 -9 24 3 7 -14 30 -37 51 -38
34 -46 37 -84 32 -53 -5 -62 0 -67 38 -1 17 -8 30 -15 30 -7 0 -18 6 -24 13
-7 6 -19 12 -25 12 -7 0 -20 8 -30 18 -13 12 -36 18 -85 19 -55 2 -72 6 -91
25 -13 13 -39 31 -57 40 -18 10 -29 22 -26 28 3 5 -5 14 -19 19 -13 6 -28 16
-33 24 -4 7 -39 26 -77 42 -64 27 -126 74 -126 96 0 5 -14 9 -31 9 -17 0 -44
9 -60 21 -16 11 -36 18 -44 15 -10 -4 -15 1 -15 15 0 11 4 18 9 15 5 -4 20 -2
33 4 21 9 56 8 100 -2z m-1982 -356 c0 -15 -2 -15 -10 -2 -13 20 -13 33 0 25
6 -3 10 -14 10 -23z m40 -32 c0 -5 -2 -10 -4 -10 -3 0 -8 5 -11 10 -3 6 -1 10
4 10 6 0 11 -4 11 -10z m-303 -46 c-3 -3 -12 -4 -19 -1 -8 3 -5 6 6 6 11 1 17
-2 13 -5z m2827 -20 c9 -22 8 -24 -9 -24 -8 0 -15 9 -15 20 0 24 15 27 24 4z
m-2754 -43 c0 -10 -6 -21 -13 -24 -10 -4 -13 2 -9 19 5 28 22 32 22 5z m2038
-1 c4 -22 -36 -44 -54 -30 -10 9 -11 17 -3 32 12 22 52 21 57 -2z m-2174 -36
c24 -9 19 -33 -9 -46 -14 -6 -25 -15 -25 -20 0 -4 -5 -8 -12 -8 -6 0 -8 3 -5
7 4 3 -1 12 -11 19 -16 12 -15 13 6 14 15 0 26 7 29 20 6 22 6 22 27 14z m246
-30 c0 -17 -46 -19 -56 -3 -3 6 -1 15 6 19 17 11 50 0 50 -16z m60 -29 c0 -31
-35 -35 -43 -6 -6 24 0 31 25 31 13 0 18 -7 18 -25z m3018 -10 c-3 -3 -9 2
-12 12 -6 14 -5 15 5 6 7 -7 10 -15 7 -18z m-200 -16 c-2 -6 -8 -10 -13 -10
-5 0 -11 4 -13 10 -2 6 4 11 13 11 9 0 15 -5 13 -11z m-3085 -23 c7 -17 -1
-26 -24 -26 -21 0 -33 15 -24 30 9 15 42 12 48 -4z m2303 -12 c10 -8 13 -13 7
-9 -8 4 -13 0 -13 -9 0 -19 -26 -21 -33 -3 -5 14 2 37 12 37 4 0 16 -7 27 -16z
m-911 -4 c-3 -5 -10 -10 -16 -10 -5 0 -9 5 -9 10 0 6 7 10 16 10 8 0 12 -4 9
-10z m1182 -26 c6 -9 17 -13 22 -9 6 3 14 -1 17 -10 9 -23 -3 -30 -22 -14 -9
7 -29 12 -45 11 -15 -2 -40 3 -54 11 -25 12 -26 15 -11 30 19 18 73 8 93 -19z
m634 26 c24 -13 26 -50 2 -50 -10 0 -27 7 -37 15 -16 12 -17 17 -6 30 15 18
16 18 41 5z m-471 -22 c0 -18 -2 -20 -9 -8 -6 8 -7 18 -5 22 9 14 14 9 14 -14z
m-375 -68 c-3 -5 -13 -6 -21 -3 -12 4 -13 8 -3 14 15 9 32 2 24 -11z m-2115
-94 c0 -8 -7 -17 -16 -20 -23 -9 -24 -8 -24 14 0 13 7 20 20 20 11 0 20 -6 20
-14z m2272 -14 c7 -7 22 -12 35 -12 13 0 27 -9 34 -22 7 -13 25 -36 41 -51 15
-16 28 -35 28 -42 0 -8 9 -17 20 -20 15 -5 20 -15 20 -41 0 -19 1 -34 3 -34 1
0 20 -7 42 -15 l40 -14 -41 -1 c-34 0 -43 4 -52 25 -11 24 -19 27 -67 29 -11
1 -21 10 -24 21 -2 11 -11 31 -21 46 -12 16 -15 30 -10 39 9 15 -9 52 -22 44
-4 -3 -8 0 -8 5 0 6 -10 9 -22 7 -16 -2 -23 -10 -22 -25 1 -31 -15 -26 -31 11
-22 54 18 89 57 50z m-912 -2 c0 -5 -7 -10 -16 -10 -8 0 -12 5 -9 10 3 6 10
10 16 10 5 0 9 -4 9 -10z m1205 -20 c4 -6 4 -17 1 -25 -7 -18 -36 -8 -36 12 0
8 -4 11 -10 8 -5 -3 -10 -1 -10 4 0 14 47 14 55 1z m-645 -20 c0 -5 -7 -7 -15
-4 -8 4 -15 8 -15 10 0 2 7 4 15 4 8 0 15 -4 15 -10z m720 -39 c0 -19 -22 -23
-38 -7 -15 15 -14 16 11 16 15 0 27 -4 27 -9z m70 -20 c0 -6 -4 -13 -10 -16
-5 -3 -10 1 -10 9 0 9 5 16 10 16 6 0 10 -4 10 -9z m-55 -31 c10 -11 14 -20 9
-20 -5 0 -15 9 -22 20 -7 11 -11 20 -9 20 2 0 12 -9 22 -20z m76 -26 c7 -8 25
-22 41 -30 15 -8 28 -19 28 -24 0 -15 -16 -12 -33 5 -8 8 -17 12 -20 9 -14
-14 -47 9 -47 32 0 28 12 31 31 8z"/>
<path d="M4898 4464 c2 -13 9 -24 15 -24 6 0 7 3 4 7 -4 3 -2 12 4 20 6 7 10
13 8 14 -34 7 -36 6 -31 -17z"/>
<path d="M6575 3590 c3 -5 10 -10 16 -10 5 0 9 5 9 10 0 6 -7 10 -16 10 -8 0
-12 -4 -9 -10z"/>
<path d="M5353 2616 c-49 -9 -53 -12 -53 -38 0 -15 -5 -28 -12 -28 -6 0 -9 -3
-5 -6 3 -3 28 -8 55 -10 49 -3 50 -2 67 34 10 20 20 41 23 46 3 5 0 6 -6 2 -5
-3 -12 -3 -14 1 -1 5 -27 4 -55 -1z"/>
<path d="M4983 2423 c-27 -5 -30 -21 -5 -30 28 -10 52 -35 52 -53 0 -20 29
-35 41 -23 4 4 9 21 11 37 2 20 -3 32 -17 40 -11 6 -24 17 -28 24 -8 12 -14
13 -54 5z"/>
<path d="M5704 2235 c-10 -25 4 -47 28 -43 16 2 24 11 26 28 2 21 -2 26 -23
28 -15 1 -28 -4 -31 -13z"/>
<path d="M5365 2191 c-9 -16 35 -35 48 -22 9 9 8 14 -3 21 -19 12 -37 13 -45
1z"/>
<path d="M5634 2136 c-3 -8 -6 -20 -8 -28 -1 -7 -5 -18 -9 -24 -7 -12 1 -24
15 -24 5 0 6 5 3 10 -9 15 4 30 20 24 11 -5 12 -10 2 -25 -6 -10 -17 -19 -23
-19 -17 0 -24 -48 -9 -60 22 -18 65 5 65 35 0 23 12 30 41 27 4 -1 5 8 2 19
-4 12 -11 18 -20 15 -8 -3 -11 -1 -8 4 3 6 -3 10 -14 10 -13 0 -21 7 -21 18 0
15 -2 15 -11 2 -9 -12 -10 -11 -6 8 6 24 -10 31 -19 8z m51 -65 c-3 -6 -11
-11 -16 -11 -5 0 -4 6 3 14 14 16 24 13 13 -3z"/>
<path d="M5926 2115 c-4 -11 1 -15 19 -15 18 0 23 4 19 15 -4 8 -12 15 -19 15
-7 0 -15 -7 -19 -15z"/>
<path d="M5602 2113 c-6 -2 -10 -9 -6 -14 8 -14 21 -11 21 6 0 8 -1 15 -1 14
-1 0 -7 -3 -14 -6z"/>
<path d="M5810 2085 c-8 -10 -10 -28 -6 -53 4 -20 8 -42 8 -48 1 -7 13 -10 27
-8 112 14 117 13 118 -9 1 -12 7 -23 12 -25 6 -2 21 -12 33 -22 l23 -18 -25
-7 c-24 -6 -50 -44 -50 -72 0 -18 -31 -31 -63 -26 -16 2 -35 -1 -42 -7 -8 -7
-19 -9 -24 -6 -5 4 -12 2 -16 -3 -3 -5 3 -15 12 -21 17 -11 17 -11 1 -6 -10 3
-18 1 -18 -4 0 -6 7 -10 15 -10 8 0 23 -9 34 -21 29 -31 81 -23 101 16 18 35
33 48 77 70 18 9 32 19 32 23 -6 36 33 48 84 27 24 -10 37 -22 39 -37 3 -24
48 -40 48 -18 0 6 4 9 9 5 5 -3 13 0 17 6 4 7 3 9 -3 6 -6 -4 -14 0 -17 9 -9
25 -7 34 8 34 19 0 28 14 21 32 -7 17 -61 22 -71 7 -4 -8 -3 -9 4 -5 8 5 10 2
6 -8 -11 -29 -34 -19 -28 12 4 20 0 33 -15 46 -12 11 -21 27 -21 38 0 26 -12
23 -45 -12 -27 -28 -31 -29 -42 -14 -7 9 -9 29 -6 45 5 26 3 29 -21 29 -15 0
-39 -8 -54 -17 -27 -17 -27 -17 -9 3 20 25 22 34 4 34 -7 0 -31 8 -53 19 -60
28 -90 33 -104 16z"/>
<path d="M6204 2086 c-11 -6 -29 -20 -39 -30 -18 -18 -18 -19 0 -32 29 -22 42
-15 36 19 0 4 4 7 10 7 6 0 9 6 6 14 -3 7 0 19 6 25 13 13 9 13 -19 -3z"/>
<path d="M6070 2050 c-20 -12 -10 -19 14 -10 11 3 15 9 10 13 -6 3 -16 2 -24
-3z"/>
<path d="M4690 2020 c0 -5 5 -10 10 -10 6 0 10 5 10 10 0 6 -4 10 -10 10 -5 0
-10 -4 -10 -10z"/>
<path d="M4940 1903 c-8 -3 -22 -7 -30 -10 -8 -4 -19 -5 -24 -4 -5 1 -4 -5 3
-13 10 -12 9 -15 -6 -19 -10 -2 -1 -2 21 1 21 2 48 0 60 -6 35 -16 106 -30
111 -22 10 16 -7 38 -33 45 -15 4 -29 10 -32 15 -7 11 -50 19 -70 13z"/>
<path d="M5464 1885 c-4 -9 -19 -15 -38 -15 -40 0 -76 -10 -76 -21 0 -4 9 -17
21 -28 26 -24 19 -51 -22 -85 -16 -14 -29 -27 -29 -30 0 -4 37 -15 78 -22 6
-1 12 4 12 12 0 8 8 17 18 20 9 3 27 10 38 16 15 7 28 6 45 -2 19 -11 25 -10
33 3 9 13 13 13 44 -1 32 -16 35 -16 47 1 7 10 16 18 19 17 21 -2 55 14 49 24
-4 6 1 5 10 -3 10 -8 20 -11 24 -7 3 3 1 6 -6 6 -8 0 -11 6 -7 16 4 10 2 13
-7 8 -9 -5 -9 -4 -1 5 7 7 10 21 7 31 -6 23 -34 35 -44 18 -9 -15 -1 -31 12
-23 5 4 9 1 9 -4 0 -14 -13 -14 -28 1 -8 8 -18 9 -36 1 -31 -15 -50 1 -35 29
8 15 17 18 40 13 22 -5 29 -3 29 9 0 18 -26 21 -65 6 -41 -16 -87 -22 -80 -11
6 10 -24 31 -45 31 -6 0 -13 -7 -16 -15z m90 -72 c3 -7 1 -15 -5 -19 -14 -8
-39 15 -39 37 0 17 3 17 20 7 11 -7 22 -18 24 -25z"/>
<path d="M5873 1885 c0 -8 6 -15 12 -15 6 0 12 7 12 15 0 8 -6 15 -12 15 -6 0
-12 -7 -12 -15z"/>
<path d="M6353 1824 c0 -11 9 -14 30 -12 44 4 47 28 5 28 -25 0 -35 -5 -35
-16z"/>
<path d="M5771 1757 c-6 -8 -8 -17 -4 -20 3 -4 1 -7 -4 -7 -6 0 -13 4 -15 9
-7 20 -65 16 -65 -4 0 -13 2 -13 16 -1 12 11 21 12 31 5 12 -9 12 -10 -3 -5
-13 4 -20 0 -24 -14 -3 -11 -14 -20 -24 -20 -17 0 -24 -11 -16 -25 1 -2 -7
-11 -18 -18 -16 -13 -18 -20 -10 -53 8 -30 15 -38 37 -41 38 -5 41 9 12 48
-21 29 -22 35 -9 37 20 5 86 -26 102 -47 11 -14 14 -14 23 -1 14 22 13 24 -25
54 l-35 28 21 29 c11 16 17 29 13 29 -3 0 -1 7 6 15 7 8 10 15 7 15 -2 0 -10
-6 -16 -13z"/>
<path d="M5177 1729 c7 -7 15 -10 18 -7 3 3 -2 9 -12 12 -14 6 -15 5 -6 -5z"/>
<path d="M5813 1693 c-7 -3 -13 -12 -13 -22 0 -22 47 -64 65 -58 7 3 17 1 22
-4 7 -7 12 -5 16 4 6 15 -37 60 -47 50 -3 -4 -6 1 -6 9 0 18 -18 27 -37 21z"/>
<path d="M5514 1673 c2 -35 39 -83 63 -83 44 0 41 60 -3 69 -10 2 -23 9 -27
17 -11 20 -34 17 -33 -3z"/>
<path d="M5044 1669 c-3 -5 -2 -18 1 -29 5 -16 10 -18 26 -9 11 6 19 17 17 26
-3 18 -35 26 -44 12z"/>
<path d="M5970 1638 c0 -16 4 -28 9 -28 18 0 20 17 6 36 -14 18 -14 18 -15 -8z"/>
<path d="M4967 1603 c-9 -9 -9 -51 1 -56 13 -9 54 32 48 48 -5 15 -37 21 -49
8z"/>
<path d="M6010 1586 c0 -29 17 -43 33 -27 8 8 9 16 1 28 -17 27 -34 27 -34 -1z"/>
<path d="M6288 1587 c-6 -16 1 -37 13 -37 12 0 12 37 0 44 -5 3 -11 0 -13 -7z"/>
<path d="M6387 1583 c-4 -3 -7 -17 -7 -30 0 -19 5 -23 30 -23 35 0 36 2 14 35
-17 26 -26 30 -37 18z"/>
<path d="M5090 1535 c-16 -17 -19 -25 -9 -25 19 1 49 24 49 39 0 18 -15 13
-40 -14z"/>
<path d="M6045 1361 c-3 -5 -2 -12 3 -15 5 -3 9 1 9 9 0 17 -3 19 -12 6z"/>
<path d="M3929 6488 c5 -15 20 -25 42 -30 28 -6 37 -3 51 15 10 12 18 25 18
30 0 4 -27 7 -60 7 -57 0 -59 -1 -51 -22z"/>
<path d="M4760 6495 c7 -8 27 -15 46 -15 24 0 34 -5 39 -20 9 -27 -1 -40 -31
-40 -26 0 -32 -14 -11 -27 22 -13 26 -50 9 -75 -19 -26 -17 -57 5 -73 12 -9
10 -11 -9 -13 -13 -1 -33 3 -44 9 -19 10 -27 6 -60 -31 -22 -23 -45 -53 -51
-65 -7 -13 -25 -26 -40 -30 -44 -10 -57 -25 -81 -101 -12 -40 -31 -83 -42 -97
-11 -14 -17 -32 -14 -40 9 -23 -67 -154 -109 -188 -18 -15 -18 -17 -3 -47 18
-35 21 -78 5 -87 -6 -4 -7 -19 -4 -36 5 -20 1 -39 -14 -62 -11 -18 -24 -59
-29 -90 -6 -40 -16 -63 -30 -73 -20 -14 -22 -24 -7 -56 4 -10 5 -25 2 -32 -10
-26 25 -6 60 32 18 20 35 33 39 29 4 -4 1 -7 -7 -7 -12 0 -12 -2 0 -9 11 -7
11 -13 -2 -37 -9 -16 -22 -40 -29 -54 -7 -14 -18 -29 -25 -33 -18 -11 -16 -25
5 -29 24 -6 58 18 83 58 11 19 34 41 50 49 31 17 36 38 17 79 -8 18 -15 23
-23 16 -8 -7 -12 -5 -12 4 0 8 11 20 23 27 20 10 39 43 51 89 2 8 5 45 8 81 3
48 13 87 39 143 32 68 35 83 32 146 -4 68 -3 72 25 92 16 12 29 28 29 35 0 8
9 31 20 53 18 36 22 38 49 30 25 -7 36 -2 83 35 30 23 70 47 90 54 44 14 72
53 64 87 -4 13 -11 24 -16 24 -6 0 -10 11 -10 24 0 26 37 56 68 56 25 0 102
96 103 129 1 45 7 65 23 77 9 6 16 14 16 18 0 3 -88 6 -196 6 -174 0 -195 -2
-184 -15z"/>
<path d="M5368 6503 c7 -3 16 -2 19 1 4 3 -2 6 -13 5 -11 0 -14 -3 -6 -6z"/>
<path d="M5828 6503 c12 -2 30 -2 40 0 9 3 -1 5 -23 4 -22 0 -30 -2 -17 -4z"/>
<path d="M6050 6491 c-14 -27 9 -40 27 -16 17 24 17 35 -2 35 -8 0 -19 -9 -25
-19z"/>
<path d="M6936 6498 c16 -27 51 -43 104 -48 45 -4 55 -8 54 -22 -2 -22 12 -24
19 -3 13 33 185 56 195 26 6 -18 29 -12 35 9 9 34 49 25 91 -21 35 -39 38 -41
66 -29 26 11 32 9 63 -14 19 -15 45 -29 58 -31 13 -3 27 -12 32 -21 5 -9 23
-30 38 -47 34 -35 37 -63 9 -70 -16 -4 -20 -12 -18 -37 2 -27 6 -31 28 -28 20
2 25 8 25 33 1 22 6 31 25 36 38 11 52 10 45 -1 -4 -6 -11 -7 -17 -4 -6 4 -8
2 -5 -3 4 -6 18 -8 32 -5 15 2 25 0 25 -7 0 -6 8 -11 19 -11 25 0 42 -22 31
-40 -5 -8 -29 -20 -52 -25 -54 -14 -56 -36 -4 -50 51 -14 67 -56 37 -95 -19
-26 -58 -35 -53 -12 1 8 -6 16 -17 19 -13 3 -18 11 -15 21 5 14 3 13 -6 -1
-16 -25 -21 -104 -8 -132 5 -12 21 -28 34 -34 40 -18 25 -56 -23 -59 -15 0
-20 4 -17 13 7 18 -21 60 -30 46 -4 -6 -4 -26 0 -46 4 -22 2 -35 -4 -35 -21 0
-73 -56 -67 -72 4 -9 2 -19 -4 -23 -6 -3 -11 1 -11 9 0 20 -14 20 -30 1 -7 -9
-19 -14 -25 -11 -7 2 -18 -1 -25 -7 -10 -9 -11 -9 -6 3 4 8 0 6 -8 -4 -20 -25
-20 -60 -1 -76 23 -19 18 -30 -14 -30 -37 0 -62 10 -55 21 3 5 -1 9 -8 9 -7 0
-19 -9 -26 -20 -7 -12 -23 -20 -40 -20 -25 -1 -26 -1 -7 -12 28 -17 45 -18 45
-5 0 7 4 6 9 -3 6 -8 8 -17 5 -21 -2 -4 0 -10 5 -14 6 -3 8 5 5 20 -5 31 6 32
30 3 l19 -22 28 32 c16 18 38 32 48 32 23 0 36 16 21 25 -18 11 -11 35 15 47
13 6 22 14 20 18 -7 11 15 26 48 34 43 10 45 -17 6 -63 -19 -22 -40 -38 -46
-35 -8 2 -13 -6 -13 -21 0 -17 6 -25 21 -27 29 -4 48 -33 32 -49 -8 -8 -17 -8
-30 0 -14 7 -23 7 -31 -1 -14 -14 -4 -38 16 -38 29 0 82 -24 82 -37 0 -25 -43
-73 -65 -73 -13 0 -21 -7 -22 -19 -1 -17 5 -19 85 -16 l87 3 48 -51 c36 -40
47 -59 47 -85 0 -41 16 -72 37 -72 9 0 22 -8 29 -17 11 -15 13 39 14 334 0
272 -3 352 -12 356 -10 4 -10 7 0 18 9 10 12 97 12 366 l0 353 -69 0 c-53 0
-70 -4 -75 -15 -3 -9 -19 -21 -36 -27 -18 -6 -37 -23 -47 -41 -15 -29 -16 -30
-29 -12 -8 10 -14 36 -14 57 l0 38 -401 0 c-317 0 -399 -3 -393 -12z m860
-904 c-19 -19 -20 -26 -4 -42 17 -17 -21 -16 -43 1 -15 11 -15 15 -3 31 16 23
58 45 62 34 2 -4 -4 -15 -12 -24z m123 -17 c8 -10 7 -18 -2 -31 -12 -16 -14
-16 -26 -2 -14 16 -9 46 7 46 5 0 15 -6 21 -13z m-92 -199 c-3 -8 -6 -5 -6 6
-1 11 2 17 5 13 3 -3 4 -12 1 -19z"/>
<path d="M3626 6473 c-12 -12 -6 -33 10 -33 8 0 13 4 10 9 -4 5 -1 11 6 13 8
3 6 6 -4 10 -9 4 -19 4 -22 1z"/>
<path d="M6855 6470 c-4 -6 11 -27 32 -46 30 -28 39 -32 41 -19 6 29 -60 87
-73 65z"/>
<path d="M5307 6400 c-6 -23 1 -25 25 -6 18 13 14 26 -8 26 -6 0 -14 -9 -17
-20z"/>
<path d="M3993 6393 c-21 -7 -15 -33 7 -33 11 0 20 6 20 14 0 18 -11 25 -27
19z"/>
<path d="M6725 6351 c-4 -7 1 -24 12 -39 l18 -27 3 24 c4 27 -21 60 -33 42z"/>
<path d="M6979 6335 c-2 -24 -4 -28 -22 -62 -14 -27 -15 -33 -3 -33 7 0 19 -7
26 -15 7 -8 20 -15 28 -15 15 0 15 1 0 16 -12 12 -14 24 -7 52 9 39 4 72 -12
72 -5 0 -10 -7 -10 -15z"/>
<path d="M5251 6280 c-50 -12 -55 -70 -6 -70 17 0 28 7 34 22 5 14 10 17 15
10 12 -20 26 -13 26 13 0 25 -29 37 -31 13 0 -8 -3 -7 -7 3 -5 10 -15 13 -31
9z"/>
<path d="M5743 6278 c2 -7 10 -12 18 -10 23 6 60 -8 53 -20 -5 -7 -3 -8 5 -3
19 11 -9 35 -49 41 -24 4 -31 2 -27 -8z"/>
<path d="M7195 6244 c-10 -8 -28 -14 -39 -14 -38 0 -50 -15 -30 -35 15 -15 29
-17 92 -11 55 4 80 2 103 -9 16 -9 32 -14 36 -13 3 2 11 -10 16 -27 11 -33 26
-47 44 -40 6 2 17 -2 23 -10 9 -11 6 -16 -12 -26 -13 -7 -27 -12 -31 -11 -4 1
0 -9 8 -22 9 -13 27 -27 40 -30 14 -4 29 -15 35 -26 16 -29 48 -26 56 6 4 14
2 30 -5 37 -13 13 -14 66 -2 86 7 10 22 12 60 8 29 -3 58 -4 66 0 16 6 21 33
6 33 -5 0 -12 11 -15 25 -5 21 -10 24 -25 16 -9 -6 -28 -11 -42 -13 -13 -2
-38 -11 -55 -21 -17 -9 -35 -13 -39 -9 -5 4 -5 2 -1 -5 9 -17 -14 -28 -25 -12
-5 8 -9 24 -9 36 0 14 -9 24 -30 32 -16 5 -30 14 -30 19 0 14 -72 40 -125 45
-34 3 -57 0 -70 -9z"/>
<path d="M7410 6240 c0 -5 7 -10 16 -10 8 0 12 5 9 10 -3 6 -10 10 -16 10 -5
0 -9 -4 -9 -10z"/>
<path d="M7460 6209 c0 -5 5 -7 10 -4 6 3 10 8 10 11 0 2 -4 4 -10 4 -5 0 -10
-5 -10 -11z"/>
<path d="M7216 6153 c-8 -21 10 -33 52 -33 36 0 55 26 31 41 -24 15 -76 10
-83 -8z"/>
<path d="M5690 6156 c0 -2 8 -10 18 -17 15 -13 16 -12 3 4 -13 16 -21 21 -21
13z"/>
<path d="M5630 6075 c0 -18 45 -38 69 -32 11 3 9 5 -5 6 -13 1 -24 9 -27 21
-6 23 -37 27 -37 5z"/>
<path d="M5780 6080 c0 -5 7 -10 16 -10 8 0 12 5 9 10 -3 6 -10 10 -16 10 -5
0 -9 -4 -9 -10z"/>
<path d="M5976 6075 c-3 -9 0 -15 9 -15 9 0 12 6 9 15 -4 8 -7 15 -9 15 -2 0
-5 -7 -9 -15z"/>
<path d="M7320 6074 l-45 -12 48 2 c26 1 48 6 48 10 1 13 -5 13 -51 0z"/>
<path d="M6964 6056 c-13 -10 -16 -18 -8 -25 7 -8 16 -7 30 3 13 10 16 18 8
25 -7 8 -16 7 -30 -3z"/>
<path d="M580 5995 c0 -8 4 -15 10 -15 5 0 7 7 4 15 -4 8 -8 15 -10 15 -2 0
-4 -7 -4 -15z"/>
<path d="M5875 5990 c4 -6 -1 -7 -11 -3 -14 5 -16 3 -11 -11 4 -10 7 -20 7
-22 0 -2 5 -4 11 -4 5 0 8 4 5 9 -4 5 3 7 15 4 19 -5 20 -4 8 16 -8 11 -17 21
-22 21 -4 0 -5 -4 -2 -10z"/>
<path d="M100 5963 c0 -21 3 -24 9 -14 5 8 7 20 4 28 -8 21 -13 15 -13 -14z"/>
<path d="M6556 5973 c-6 -15 -8 -15 -16 -3 -8 13 -10 12 -10 -2 0 -9 8 -22 18
-27 10 -6 12 -11 4 -11 -8 0 -10 -5 -5 -12 4 -7 6 -21 5 -30 -2 -12 3 -18 15
-19 10 0 35 -1 56 -2 20 -1 37 1 37 6 0 8 -43 27 -70 31 -8 2 -14 6 -12 9 1 4
2 10 2 13 0 4 7 1 15 -6 11 -9 15 -9 15 -1 0 7 4 9 10 6 5 -3 0 10 -13 29 -24
39 -41 45 -51 19z"/>
<path d="M5030 5968 c0 -4 6 -8 14 -8 8 0 17 4 20 8 2 4 -4 8 -15 8 -10 0 -19
-4 -19 -8z"/>
<path d="M5528 5973 c7 -3 16 -2 19 1 4 3 -2 6 -13 5 -11 0 -14 -3 -6 -6z"/>
<path d="M5810 5925 c0 -26 14 -33 26 -14 3 6 1 15 -6 19 -10 6 -9 9 1 13 10
4 9 6 -3 6 -13 1 -18 -7 -18 -24z"/>
<path d="M5690 5916 c-9 -12 -7 -17 9 -26 12 -6 21 -17 21 -25 0 -8 9 -15 19
-15 22 0 34 -14 38 -44 5 -29 12 -32 26 -12 7 10 25 19 39 19 31 2 26 25 -8
33 -14 4 -29 15 -35 25 -5 11 -18 19 -28 19 -10 0 -30 9 -44 20 -21 17 -27 18
-37 6z"/>
<path d="M7610 5920 c-11 -7 -12 -15 -4 -37 13 -37 41 -42 50 -9 11 47 -10 69
-46 46z"/>
<path d="M5560 5880 c-19 -12 5 -21 31 -12 22 9 22 9 2 14 -11 3 -26 2 -33 -2z"/>
<path d="M5631 5877 c-9 -12 -8 -16 3 -20 19 -7 32 11 19 24 -6 6 -14 5 -22
-4z"/>
<path d="M7463 5837 c-15 -32 -2 -50 28 -42 27 7 53 40 44 55 -4 6 -19 10 -34
10 -19 0 -31 -7 -38 -23z"/>
<path d="M6272 5817 c-17 -20 -5 -52 14 -36 10 8 14 8 15 0 1 -6 3 -15 4 -21
1 -5 4 -16 5 -22 1 -7 5 -2 9 12 4 14 3 30 -1 35 -5 6 -14 18 -21 28 -11 16
-15 17 -25 4z"/>
<path d="M105 5791 c-8 -15 1 -28 23 -33 15 -4 19 0 18 16 -1 22 -30 34 -41
17z"/>
<path d="M6470 5792 c0 -5 8 -17 19 -26 15 -14 19 -14 24 -3 3 8 0 20 -6 26
-13 13 -37 15 -37 3z"/>
<path d="M7587 5786 c-5 -12 0 -16 17 -16 14 0 31 -3 40 -6 10 -4 16 -1 16 9
0 9 -8 15 -17 15 -10 0 -25 2 -34 6 -10 5 -19 1 -22 -8z"/>
<path d="M3300 5766 c0 -7 9 -16 20 -19 15 -4 20 0 20 14 0 12 -7 19 -20 19
-11 0 -20 -6 -20 -14z"/>
<path d="M6224 5771 c-40 -10 -54 -19 -54 -35 0 -9 13 -13 37 -12 31 1 38 5
44 29 4 15 7 27 6 26 -1 -1 -16 -4 -33 -8z"/>
<path d="M6730 5700 c0 -5 7 -10 15 -10 8 0 15 5 15 10 0 6 -7 10 -15 10 -8 0
-15 -4 -15 -10z"/>
<path d="M311 5644 l-24 -17 24 -13 c37 -20 89 -18 89 4 0 41 -47 55 -89 26z"/>
<path d="M5640 5614 c0 -8 5 -12 10 -9 6 3 10 10 10 16 0 5 -4 9 -10 9 -5 0
-10 -7 -10 -16z"/>
<path d="M5804 5613 c2 -10 6 -17 10 -16 15 3 16 11 2 22 -12 10 -14 9 -12 -6z"/>
<path d="M3390 5607 c0 -23 40 -57 66 -57 24 0 24 -1 10 -22 -18 -26 -21 -84
-5 -93 5 -4 14 -18 19 -31 14 -37 55 -32 80 9 26 42 21 52 -26 52 -33 0 -39 3
-42 23 -2 13 2 29 8 37 9 11 8 19 -4 36 -31 45 -106 77 -106 46z"/>
<path d="M7466 5455 c-9 -14 -13 -25 -9 -25 5 -1 -3 -7 -16 -14 -13 -7 -20
-15 -15 -18 19 -11 63 -18 78 -12 26 10 13 94 -14 94 -4 0 -15 -11 -24 -25z"/>
<path d="M5005 5390 c-4 -6 -3 -16 3 -22 6 -6 12 -6 17 2 4 6 3 16 -3 22 -6 6
-12 6 -17 -2z"/>
<path d="M3603 5285 c-7 -21 -2 -25 25 -18 18 4 20 8 11 19 -15 18 -28 18 -36
-1z"/>
<path d="M7570 5280 c0 -5 7 -7 15 -4 8 4 15 8 15 10 0 2 -7 4 -15 4 -8 0 -15
-4 -15 -10z"/>
<path d="M7456 5265 c-3 -8 -1 -15 4 -15 6 0 10 7 10 15 0 8 -2 15 -4 15 -2 0
-6 -7 -10 -15z"/>
<path d="M7610 5271 c-22 -6 -23 -8 -7 -14 27 -10 34 -9 34 8 0 8 -1 15 -1 14
-1 -1 -12 -4 -26 -8z"/>
<path d="M3675 5208 c10 -106 40 -138 40 -42 0 47 -4 59 -22 71 -22 14 -22 14
-18 -29z"/>
<path d="M4266 5172 c-2 -4 -1 -14 4 -22 7 -11 9 -9 7 8 -1 24 -3 26 -11 14z"/>
<path d="M2863 5133 c-18 -6 -16 -33 1 -33 15 0 30 27 18 33 -4 3 -13 2 -19 0z"/>
<path d="M7294 5099 c0 -10 4 -19 8 -19 4 0 8 6 8 14 0 8 -4 17 -8 20 -4 2 -8
-4 -8 -15z"/>
<path d="M2940 5029 c-16 -48 -5 -74 31 -74 31 0 36 28 13 63 -10 15 -17 33
-16 40 2 6 -1 12 -6 12 -5 0 -15 -18 -22 -41z"/>
<path d="M4270 5034 c0 -8 5 -12 10 -9 6 3 10 10 10 16 0 5 -4 9 -10 9 -5 0
-10 -7 -10 -16z"/>
<path d="M7404 5035 c-10 -26 7 -38 26 -18 9 10 16 21 13 26 -7 12 -33 8 -39
-8z"/>
<path d="M7309 4985 c-1 -8 -2 -21 -3 -27 -1 -7 5 -14 12 -14 6 -1 19 -2 27
-3 8 0 15 -8 15 -18 0 -23 8 -12 14 19 3 20 -1 30 -19 42 -30 20 -45 20 -46 1z"/>
<path d="M7693 4979 c-30 -9 -59 -33 -32 -27 7 2 18 -11 24 -28 l10 -32 38 33
c35 30 36 34 22 49 -18 18 -18 18 -62 5z"/>
<path d="M4918 4964 c-4 -3 -2 -19 4 -36 9 -27 14 -29 41 -24 16 3 36 6 44 6
9 0 13 9 10 26 -3 24 -9 27 -48 30 -25 3 -48 2 -51 -2z"/>
<path d="M7860 4958 c0 -4 7 -8 15 -8 8 0 15 4 15 8 0 5 -7 9 -15 9 -8 0 -15
-4 -15 -9z"/>
<path d="M4363 4932 c-11 -9 -18 -23 -15 -31 4 -11 -2 -13 -27 -8 -20 4 -30 3
-26 -3 3 -6 13 -10 22 -10 14 0 14 -3 -2 -20 -17 -18 -17 -20 -2 -14 13 5 16
2 10 -11 -9 -24 25 -49 44 -34 7 6 13 8 13 3 0 -5 8 3 17 16 17 24 19 28 22
50 0 6 8 10 16 10 21 0 18 11 -8 36 -35 33 -43 35 -64 16z"/>
<path d="M7793 4933 c-19 -7 -16 -62 3 -70 20 -7 59 30 51 50 -6 16 -35 26
-54 20z"/>
<path d="M4608 4893 c6 -2 18 -2 25 0 6 3 1 5 -13 5 -14 0 -19 -2 -12 -5z"/>
<path d="M4460 4820 c0 -5 5 -10 10 -10 6 0 10 5 10 10 0 6 -4 10 -10 10 -5 0
-10 -4 -10 -10z"/>
<path d="M7217 4819 c-10 -6 -21 -8 -24 -5 -4 3 -12 1 -20 -5 -7 -6 -13 -8
-13 -3 0 20 -20 -23 -20 -43 0 -28 10 -29 52 -3 21 12 51 20 80 20 36 0 46 3
44 16 -5 32 -61 45 -99 23z"/>
<path d="M7598 4812 c-6 -21 34 -72 57 -72 8 0 15 -4 15 -9 0 -15 38 -23 56
-13 15 8 15 10 -1 23 -49 39 -76 70 -70 79 4 6 -6 10 -23 10 -20 0 -31 -6 -34
-18z"/>
<path d="M7740 4800 c6 -11 20 -20 30 -20 18 0 19 3 8 20 -7 11 -21 20 -31 20
-15 0 -16 -3 -7 -20z"/>
<path d="M7441 4724 c6 -7 17 -10 25 -7 19 7 8 22 -16 20 -14 -1 -16 -5 -9
-13z"/>
<path d="M7620 4675 c-10 -12 -10 -15 3 -15 8 0 17 7 21 15 3 8 2 15 -3 15 -5
0 -14 -7 -21 -15z"/>
<path d="M2279 4619 l-22 -31 -74 7 c-75 7 -103 -1 -103 -31 0 -17 105 -18
205 -2 65 10 73 9 108 -12 20 -12 37 -25 37 -30 0 -19 -63 -31 -151 -29 -91 2
-96 1 -162 -34 -60 -32 -117 -48 -117 -32 0 3 9 18 20 33 27 36 19 54 -31 76
l-39 18 -34 -29 c-43 -35 -44 -53 -6 -96 28 -32 29 -35 12 -50 -9 -8 -33 -22
-52 -30 -19 -8 -61 -39 -94 -68 -32 -30 -81 -75 -109 -100 l-51 -46 -47 15
c-34 11 -49 22 -53 37 -5 18 -15 23 -53 28 -46 5 -85 -9 -55 -20 7 -3 21 -14
32 -25 15 -17 17 -25 8 -51 -14 -41 -13 -40 -38 -32 -20 6 -21 8 -4 26 16 17
16 19 0 25 -10 4 -26 -1 -39 -14 -12 -11 -33 -25 -47 -30 -14 -5 -32 -23 -40
-38 -8 -16 -24 -41 -34 -57 -16 -21 -17 -30 -8 -39 10 -10 17 -10 32 0 16 10
21 9 30 -8 6 -11 8 -25 5 -30 -3 -5 -1 -11 5 -15 18 -11 11 -25 -13 -25 -12 0
-33 -7 -46 -16 -29 -21 -24 -59 16 -112 37 -49 43 -53 76 -46 25 5 27 3 27
-29 0 -26 8 -41 35 -66 19 -17 35 -40 35 -51 0 -12 8 -20 23 -22 14 -2 27 -15
36 -35 10 -24 21 -33 38 -33 33 0 55 -38 44 -78 -7 -23 -6 -34 5 -43 11 -9 18
-9 26 -1 7 7 18 12 25 12 15 0 66 -50 103 -102 27 -38 145 -120 200 -139 19
-7 51 -22 71 -35 56 -35 159 -72 221 -79 69 -8 80 -19 34 -35 -18 -6 -42 -20
-51 -30 -23 -26 -65 -25 -98 0 -27 21 -53 18 -74 -9 -19 -25 -15 -51 9 -60 35
-13 168 -14 183 -1 9 8 36 8 94 1 44 -6 88 -8 96 -5 20 8 20 -20 0 -36 -8 -7
-15 -20 -15 -29 0 -26 -21 -41 -56 -41 -33 0 -70 -33 -58 -52 3 -4 -1 -8 -9
-8 -8 0 -20 -7 -27 -15 -18 -21 -3 -19 31 6 22 15 37 18 65 13 44 -8 53 -28
25 -58 l-21 -22 28 -34 c34 -40 57 -36 57 11 0 31 5 36 57 63 38 20 61 39 69
58 6 15 17 28 25 28 7 0 16 5 19 10 10 16 -5 50 -21 50 -8 0 -14 10 -14 25 0
14 -7 42 -15 62 -8 19 -15 37 -15 38 0 1 16 5 36 8 24 4 56 23 94 56 59 52
155 101 196 101 12 0 25 4 28 9 11 17 88 25 97 10 4 -8 1 -17 -8 -24 -11 -8
-14 -21 -10 -41 5 -25 1 -31 -26 -44 -25 -12 -33 -23 -38 -52 -3 -20 -13 -48
-22 -62 -9 -14 -17 -37 -17 -51 0 -41 -47 -75 -138 -100 -15 -4 -21 -12 -18
-21 3 -8 -1 -14 -9 -14 -17 0 -65 -43 -65 -58 0 -6 5 -12 11 -14 6 -2 15 -26
20 -53 10 -57 37 -85 80 -85 15 0 30 -4 33 -9 10 -15 -4 -39 -27 -46 -16 -5
-18 -8 -8 -12 19 -8 60 -55 61 -70 0 -7 -18 -17 -41 -23 -53 -15 -59 -35 -20
-70 36 -34 38 -47 11 -100 -21 -41 -25 -76 -12 -97 12 -20 56 5 77 43 l16 31
109 0 c134 1 152 6 141 37 -5 12 -7 34 -4 48 4 20 0 28 -15 32 -44 14 -26 69
19 61 28 -6 66 16 107 59 19 19 49 40 68 46 19 6 34 17 34 24 0 15 88 106 101
106 13 0 35 50 42 94 4 22 10 42 14 45 21 15 47 69 60 125 13 57 13 62 -7 88
-11 15 -20 33 -20 41 0 7 21 40 46 73 56 72 97 159 112 239 9 48 18 66 45 90
28 25 52 62 47 73 -1 2 6 14 15 28 34 53 -6 100 -45 52 -17 -20 -21 -22 -40
-10 -44 27 -60 24 -60 -12 0 -35 -25 -66 -53 -66 -24 0 -21 28 8 75 30 48 31
61 6 75 -20 10 -23 9 -59 -35 -35 -41 -45 17 -12 70 16 26 17 35 7 49 -12 16
-14 16 -46 0 -30 -15 -38 -15 -60 -3 -32 18 -71 92 -71 136 0 17 -4 35 -10 38
-5 3 -10 19 -10 35 0 24 -18 47 -99 126 -55 53 -127 135 -161 183 -66 93 -163
201 -180 201 -6 0 -15 11 -20 25 -7 19 -17 25 -40 25 -36 0 -48 21 -30 55 14
27 8 53 -15 61 -22 9 -46 -25 -40 -54 7 -30 -18 -39 -59 -22 -83 34 -143 50
-188 50 -46 0 -48 1 -42 24 4 19 -1 32 -20 50 -14 15 -33 26 -42 26 -9 0 -31
9 -49 20 l-33 21 -23 -32z m689 -637 c29 -35 52 -69 52 -77 0 -7 12 -28 28
-46 25 -31 27 -39 27 -124 0 -89 -1 -94 -48 -188 -48 -95 -97 -155 -149 -183
-23 -12 -29 -12 -42 2 -9 8 -16 20 -16 25 0 19 42 104 63 127 15 16 24 47 33
120 12 92 12 99 -8 132 -15 27 -19 46 -15 81 4 34 1 53 -12 72 -17 26 -15 57
8 145 1 5 22 -17 79 -86z m-1019 -128 c31 -39 34 -60 15 -100 -31 -65 -116
-80 -151 -28 -20 31 -10 107 18 135 29 29 92 26 118 -7z m1348 -366 c-3 -8 -6
-5 -6 6 -1 11 2 17 5 13 3 -3 4 -12 1 -19z m-772 -558 c3 -5 -1 -10 -10 -10
-9 0 -13 5 -10 10 3 6 8 10 10 10 2 0 7 -4 10 -10z m255 -235 c0 -16 -27 -32
-37 -22 -3 4 -3 13 0 22 8 20 37 20 37 0z"/>
<path d="M7957 4635 c-4 -8 -3 -16 1 -19 4 -3 9 4 9 15 2 23 -3 25 -10 4z"/>
<path d="M7530 4600 c0 -6 4 -10 9 -10 5 0 11 -9 14 -21 3 -12 10 -18 16 -15
7 5 7 13 -1 26 -14 22 -38 34 -38 20z"/>
<path d="M7353 4588 c-15 -25 -11 -36 17 -40 58 -9 71 15 23 41 -27 14 -30 14
-40 -1z"/>
<path d="M7825 4560 c3 -6 -4 -10 -16 -10 -18 0 -20 -3 -11 -12 8 -8 15 -8 28
3 9 7 29 12 45 11 16 -2 29 1 29 7 0 6 -18 11 -41 11 -24 0 -38 -4 -34 -10z"/>
<path d="M1495 4310 c-3 -5 1 -10 10 -10 9 0 13 5 10 10 -3 6 -8 10 -10 10 -2
0 -7 -4 -10 -10z"/>
<path d="M3758 3899 c-19 -11 -13 -39 8 -39 8 0 14 10 14 25 0 28 1 28 -22 14z"/>
<path d="M7974 3516 c-3 -19 -15 -42 -25 -52 -10 -9 -19 -23 -19 -31 0 -7 -5
-13 -11 -13 -5 0 -8 4 -5 9 3 5 -1 14 -9 21 -20 17 -69 -19 -50 -37 10 -9 70
-11 70 -2 0 1 10 3 22 4 29 3 43 -33 19 -47 -21 -12 -21 -71 -1 -92 10 -10 12
-17 4 -21 -8 -6 -8 -55 0 -92 1 -1 7 0 15 3 10 4 14 45 15 195 1 121 -2 189
-8 189 -6 0 -13 -15 -17 -34z m-75 -69 c-2 -1 -13 -9 -24 -17 -19 -14 -19 -14
-6 3 7 9 18 17 24 17 6 0 8 -1 6 -3z"/>
<path d="M7853 3519 c6 -10 15 -19 20 -19 4 0 5 5 1 11 -4 7 0 9 14 5 11 -4
23 -2 27 3 4 7 -1 8 -11 4 -11 -4 -15 -2 -11 4 4 6 -6 10 -23 11 -27 1 -28 -1
-17 -19z"/>
<path d="M1325 3519 c-4 -6 -2 -15 5 -19 10 -6 9 -9 -1 -13 -10 -4 -9 -6 4 -6
9 -1 17 6 17 14 0 8 0 18 1 22 1 13 -19 15 -26 2z"/>
<path d="M7486 3493 c-8 -21 -1 -27 17 -16 12 6 13 10 2 20 -10 10 -15 9 -19
-4z"/>
<path d="M7360 3474 c-13 -34 4 -56 39 -52 28 3 45 43 28 66 -17 22 -57 14
-67 -14z"/>
<path d="M7730 3449 c-9 -16 -8 -25 6 -40 22 -24 26 -24 42 2 11 18 11 24 -4
40 -22 24 -31 24 -44 -2z"/>
<path d="M4197 3383 c-10 -9 -9 -23 1 -23 5 0 9 7 9 15 0 17 -1 18 -10 8z"/>
<path d="M7756 3378 c-9 -5 -16 -14 -16 -19 0 -6 4 -8 9 -4 5 3 13 0 16 -6 4
-5 13 -8 21 -5 7 3 20 -4 28 -16 11 -15 20 -18 33 -13 10 5 20 8 23 7 3 0 6 8
6 19 0 13 -5 18 -15 14 -11 -5 -12 -3 -1 10 11 14 10 14 -13 6 -15 -6 -29 -6
-31 -2 -9 14 -42 19 -60 9z"/>
<path d="M7380 3270 c0 -5 5 -10 11 -10 5 0 7 5 4 10 -3 6 -8 10 -11 10 -2 0
-4 -4 -4 -10z"/>
<path d="M7293 3185 c0 -8 4 -12 9 -9 5 3 6 10 3 15 -9 13 -12 11 -12 -6z"/>
<path d="M7900 3050 c0 -5 7 -7 15 -4 8 4 15 8 15 10 0 2 -7 4 -15 4 -8 0 -15
-4 -15 -10z"/>
<path d="M1435 3030 c-4 -6 3 -10 14 -10 25 0 27 6 6 13 -8 4 -17 2 -20 -3z"/>
<path d="M1682 3032 c-7 -5 -14 -22 -15 -38 -2 -27 1 -29 36 -32 l37 -3 0 40
c0 36 -3 41 -22 41 -13 0 -29 -4 -36 -8z"/>
<path d="M7978 2980 c-3 -18 1 -35 9 -41 10 -9 13 -3 13 30 0 48 -16 55 -22
11z"/>
<path d="M1783 2953 c-26 -5 -28 -12 -10 -37 19 -26 51 -17 55 17 3 28 1 29
-45 20z"/>
<path d="M7492 2937 c-8 -10 -7 -17 6 -28 18 -15 52 -14 52 2 0 6 4 8 8 5 5
-3 9 2 9 10 0 13 -8 15 -34 11 -20 -4 -31 -2 -28 4 9 14 -1 11 -13 -4z"/>
<path d="M7980 2885 c-7 -8 -15 -13 -19 -11 -4 3 -7 -5 -7 -16 0 -20 0 -20 17
1 9 11 19 17 23 14 3 -4 6 1 6 10 0 21 -4 21 -20 2z"/>
<path d="M7658 2883 c7 -3 16 -2 19 1 4 3 -2 6 -13 5 -11 0 -14 -3 -6 -6z"/>
<path d="M2658 2848 c-10 -12 -18 -25 -18 -29 0 -15 29 -17 49 -3 25 18 27 39
5 48 -20 8 -16 9 -36 -16z"/>
<path d="M2840 2860 c0 -5 5 -10 10 -10 6 0 10 5 10 10 0 6 -4 10 -10 10 -5 0
-10 -4 -10 -10z"/>
<path d="M7657 2813 c-3 -7 -3 -14 1 -51 4 -27 21 0 19 28 -2 28 -11 39 -20
23z"/>
<path d="M7949 2684 c-11 -14 -10 -18 6 -30 26 -19 45 -18 45 4 0 18 -18 42
-31 42 -4 0 -13 -7 -20 -16z"/>
<path d="M2620 2649 c0 -5 5 -7 10 -4 6 3 10 8 10 11 0 2 -4 4 -10 4 -5 0 -10
-5 -10 -11z"/>
<path d="M7486 2608 c3 -5 10 -6 15 -3 13 9 11 12 -6 12 -8 0 -12 -4 -9 -9z"/>
<path d="M3500 2600 c0 -5 7 -10 15 -10 8 0 15 5 15 10 0 6 -7 10 -15 10 -8 0
-15 -4 -15 -10z"/>
<path d="M7498 2553 c7 -3 16 -2 19 1 4 3 -2 6 -13 5 -11 0 -14 -3 -6 -6z"/>
<path d="M3335 2420 c-7 -11 12 -40 26 -40 13 0 39 31 34 41 -8 12 -52 11 -60
-1z"/>
<path d="M2690 2185 c-9 -11 -6 -13 15 -11 34 4 41 12 16 19 -11 3 -25 -1 -31
-8z"/>
<path d="M2860 1933 c-75 -6 -99 -13 -94 -28 8 -21 33 -27 91 -19 42 5 53 10
53 25 0 22 -6 25 -50 22z"/>
<path d="M3880 1426 c0 -3 11 -17 25 -32 14 -15 25 -23 25 -17 0 5 -9 19 -20
31 -20 21 -30 27 -30 18z"/>
<path d="M3636 1311 c-3 -4 3 -16 12 -25 16 -13 21 -14 37 -2 10 7 15 18 11
24 -8 14 -52 16 -60 3z"/>
<path d="M3495 780 c3 -5 8 -10 11 -10 2 0 4 5 4 10 0 6 -5 10 -11 10 -5 0 -7
-4 -4 -10z"/>
<path d="M4156 748 c-24 -34 -20 -57 11 -64 20 -6 31 -2 45 16 23 29 23 47 -1
60 -28 15 -38 13 -55 -12z"/>
<path d="M4519 478 c0 -2 -3 -21 -5 -43 -4 -35 -3 -38 10 -25 8 8 18 27 21 43
6 21 4 27 -9 27 -9 0 -16 -1 -17 -2z"/>
<path d="M4596 201 c-4 -6 -2 -11 3 -11 6 0 11 -10 11 -22 1 -21 1 -22 11 -4
9 14 8 22 -4 33 -10 10 -17 11 -21 4z"/>
<path d="M4670 200 c-11 -7 -6 -10 20 -10 26 0 31 3 20 10 -8 5 -17 10 -20 10
-3 0 -12 -5 -20 -10z"/>
<path d="M4578 69 c-10 -5 -18 -16 -18 -22 0 -14 35 -47 49 -47 12 0 20 36 14
60 -6 22 -19 25 -45 9z"/>
</g>
</svg>
